<svg width="300" height="300" viewBox="0 0 300 300" fill="none" xmlns="http://www.w3.org/2000/svg">
<g clip-path="url(#clip0_2_179)">
<path d="M255.615 102.829C258.824 110.263 261.354 117.93 268.434 117.93C271.834 117.93 275.094 116.339 277.498 113.507C279.902 110.675 281.253 106.834 281.253 102.829C281.253 98.8236 279.902 94.9826 277.498 92.1506C275.094 89.3186 271.834 87.7276 268.434 87.7276C261.239 87.6214 249.641 88.9921 255.615 102.829Z" fill="#2F2E41"/>
<path d="M265.691 284.44L260.212 285.878L252.896 261.67L260.982 259.547L265.691 284.44Z" fill="#A0616A"/>
<path d="M268.271 290.329L250.607 294.966L250.557 294.703C250.356 293.639 250.334 292.539 250.494 291.466C250.653 290.393 250.991 289.367 251.487 288.447C251.983 287.527 252.628 286.732 253.386 286.106C254.143 285.48 254.997 285.035 255.9 284.798L255.901 284.798L266.69 281.966L268.271 290.329Z" fill="#2F2E41"/>
<path d="M281.965 293.092H276.353L273.682 267.589L281.966 267.589L281.965 293.092Z" fill="#A0616A"/>
<path d="M283.397 299.502L265.299 299.501V299.232C265.299 298.142 265.481 297.063 265.835 296.056C266.189 295.049 266.708 294.134 267.362 293.364C268.016 292.593 268.793 291.982 269.647 291.565C270.502 291.148 271.418 290.933 272.343 290.933H272.343L283.397 290.934L283.397 299.502Z" fill="#2F2E41"/>
<path d="M282.003 279.728H274.839C274.341 279.726 273.861 279.512 273.486 279.127C273.111 278.742 272.867 278.21 272.798 277.629L266.304 218.456C266.283 218.271 266.207 218.101 266.091 217.974C265.975 217.846 265.825 217.771 265.667 217.759C265.509 217.747 265.352 217.8 265.223 217.909C265.094 218.018 265.002 218.176 264.961 218.357L261.112 235.253L264.581 273.735C264.64 274.328 264.511 274.926 264.219 275.414C263.927 275.902 263.492 276.246 262.998 276.379L257.315 277.924C256.811 278.059 256.281 277.965 255.832 277.663C255.382 277.36 255.045 276.87 254.887 276.289L245.736 238.878C244.999 236.137 244.746 233.247 244.992 230.386L247.855 196.659L248.072 196.672L286.297 198.842L284.062 277.385C284.045 278.015 283.82 278.612 283.436 279.049C283.051 279.486 282.537 279.73 282.003 279.728Z" fill="#2F2E41"/>
<path d="M267.803 118.224C274.013 118.224 279.048 112.293 279.048 104.977C279.048 97.6617 274.013 91.7311 267.803 91.7311C261.593 91.7311 256.558 97.6617 256.558 104.977C256.558 112.293 261.593 118.224 267.803 118.224Z" fill="#A0616A"/>
<path d="M285.441 202.474C285.404 202.474 285.367 202.473 285.329 202.471L247.217 200.057C246.902 200.037 246.595 199.932 246.32 199.751C246.045 199.569 245.809 199.316 245.63 199.01C245.452 198.704 245.335 198.354 245.289 197.986C245.243 197.618 245.27 197.243 245.367 196.89L248.383 185.856C251.612 174.026 252.164 161.407 249.984 149.249C249.413 146.067 249.424 142.779 250.018 139.603C250.613 136.427 251.775 133.437 253.429 130.834C255.056 128.266 257.129 126.136 259.51 124.588C261.891 123.04 264.526 122.108 267.237 121.856H267.237C267.424 121.838 267.611 121.823 267.799 121.809C270.667 121.61 273.538 122.167 276.2 123.44C278.863 124.713 281.251 126.671 283.189 129.169C285.128 131.668 286.569 134.645 287.407 137.883C288.245 141.121 288.458 144.538 288.032 147.886L285.375 168.905L287.493 199.853C287.516 200.187 287.48 200.522 287.387 200.839C287.295 201.156 287.147 201.447 286.954 201.693C286.761 201.939 286.527 202.136 286.267 202.27C286.006 202.405 285.725 202.474 285.441 202.474V202.474Z" fill="#CCCCCC"/>
<path d="M238.543 205.268C239.1 204.823 239.568 204.24 239.913 203.56C240.259 202.879 240.473 202.118 240.542 201.329C240.61 200.54 240.531 199.744 240.31 198.995C240.089 198.246 239.731 197.563 239.262 196.995L246.6 179.77L238.157 180.947L232.483 197.124C231.725 198.116 231.302 199.402 231.294 200.737C231.287 202.071 231.695 203.363 232.442 204.367C233.189 205.371 234.223 206.017 235.347 206.183C236.471 206.349 237.608 206.023 238.543 205.268H238.543Z" fill="#A0616A"/>
<path d="M288.92 208.075C288.433 207.527 288.055 206.86 287.811 206.121C287.567 205.382 287.463 204.589 287.508 203.798C287.552 203.007 287.743 202.237 288.067 201.542C288.392 200.847 288.841 200.245 289.385 199.777L284.593 181.349L292.75 184.172L296.05 201.239C296.656 202.366 296.891 203.717 296.709 205.034C296.527 206.352 295.941 207.545 295.062 208.388C294.183 209.23 293.073 209.664 291.941 209.606C290.808 209.549 289.734 209.004 288.92 208.075V208.075Z" fill="#A0616A"/>
<path d="M288.127 198.422C287.627 198.423 287.144 198.21 286.768 197.822C286.392 197.434 286.15 196.897 286.087 196.313L282.274 162.431L276.192 135.954C275.935 134.835 275.897 133.662 276.081 132.523C276.265 131.384 276.667 130.309 277.256 129.38C277.844 128.451 278.604 127.691 279.478 127.159C280.353 126.626 281.318 126.335 282.302 126.306V126.306C283.861 126.267 285.38 126.888 286.584 128.055C287.788 129.222 288.597 130.859 288.864 132.668L297.927 195.2C297.976 195.54 297.963 195.888 297.889 196.221C297.815 196.555 297.682 196.866 297.498 197.134C297.314 197.402 297.084 197.62 296.823 197.775C296.561 197.931 296.275 198.018 295.983 198.033L288.216 198.419C288.186 198.42 288.156 198.422 288.127 198.422Z" fill="#CCCCCC"/>
<path d="M242.628 194.616C242.481 194.616 242.334 194.598 242.19 194.561L234.587 192.652C234.301 192.58 234.031 192.437 233.795 192.233C233.56 192.028 233.364 191.767 233.221 191.467C233.077 191.166 232.99 190.833 232.964 190.49C232.939 190.147 232.976 189.801 233.072 189.476L250.878 129.607C251.4 127.877 252.43 126.424 253.783 125.511C255.135 124.598 256.719 124.284 258.251 124.627V124.627C259.217 124.848 260.127 125.326 260.914 126.023C261.7 126.72 262.342 127.619 262.79 128.651C263.239 129.683 263.482 130.822 263.502 131.981C263.522 133.14 263.319 134.289 262.907 135.342L253.143 160.282L244.588 192.905C244.46 193.4 244.201 193.833 243.848 194.142C243.495 194.45 243.067 194.616 242.628 194.616V194.616Z" fill="#CCCCCC"/>
<path d="M255.871 97.4913C258.44 99.5776 261.49 100.688 264.611 100.673C263.498 101.583 262.23 102.197 260.896 102.474C265.046 103.522 269.334 103.55 273.493 102.557C274.417 102.382 275.309 102.021 276.13 101.49C276.539 101.221 276.895 100.854 277.175 100.412C277.456 99.9701 277.654 99.4637 277.758 98.9257C278.034 97.0658 276.804 95.376 275.525 94.2373C273.568 92.5203 271.311 91.3374 268.918 90.774C266.524 90.2107 264.055 90.281 261.688 90.9799C260.142 91.4506 258.593 92.2458 257.589 93.7082C256.585 95.1705 256.288 97.4249 257.245 98.9307L255.871 97.4913Z" fill="#2F2E41"/>
<path d="M197.195 1.06446e-09H3.99234C2.93381 0.00107108 1.91889 0.496899 1.17038 1.37863C0.421868 2.26037 0.000943556 3.45595 7.62939e-06 4.70292V226.538C0.000949608 227.785 0.421869 228.981 1.17038 229.863C1.91888 230.744 2.93381 231.24 3.99234 231.241H20.9319V229.898H3.99234C3.23615 229.897 2.51117 229.543 1.97646 228.913C1.44175 228.283 1.14097 227.429 1.14009 226.538V4.70292C1.14096 3.81211 1.44175 2.95808 1.97646 2.32818C2.51117 1.69828 3.23615 1.34396 3.99234 1.34292H197.195C197.952 1.34285 198.678 1.69665 199.213 2.32663C199.749 2.95661 200.05 3.81127 200.052 4.70292V226.538C200.052 227.195 199.888 227.836 199.58 228.383C199.306 228.864 198.935 229.257 198.499 229.526C198.096 229.772 197.649 229.899 197.195 229.898H180.255V231.241H197.195C197.772 231.241 198.342 231.094 198.866 230.809C199.39 230.524 199.856 230.108 200.23 229.591C200.262 229.551 200.291 229.507 200.317 229.462C200.555 229.118 200.748 228.735 200.889 228.324C201.09 227.758 201.193 227.151 201.191 226.538V4.70292C201.19 3.45513 200.769 2.25892 200.019 1.3771C199.27 0.495281 198.254 -2.65135e-05 197.195 1.06446e-09Z" fill="#3F3D56"/>
<path d="M200.619 18.8511H0.568748V20.1955H200.619V18.8511Z" fill="#3F3D56"/>
<path d="M10.2696 14.1187C12.1605 14.1187 13.6934 12.3129 13.6934 10.0854C13.6934 7.85784 12.1605 6.05206 10.2696 6.05206C8.37864 6.05206 6.84575 7.85784 6.84575 10.0854C6.84575 12.3129 8.37864 14.1187 10.2696 14.1187Z" fill="#3F3D56"/>
<path d="M20.113 14.1187C22.004 14.1187 23.5369 12.3129 23.5369 10.0854C23.5369 7.85784 22.004 6.05206 20.113 6.05206C18.2221 6.05206 16.6892 7.85784 16.6892 10.0854C16.6892 12.3129 18.2221 14.1187 20.113 14.1187Z" fill="#3F3D56"/>
<path d="M29.9565 14.1187C31.8474 14.1187 33.3803 12.3129 33.3803 10.0854C33.3803 7.85784 31.8474 6.05206 29.9565 6.05206C28.0656 6.05206 26.5327 7.85784 26.5327 10.0854C26.5327 12.3129 28.0656 14.1187 29.9565 14.1187Z" fill="#3F3D56"/>
<path d="M148.896 49.9717H52.2949C50.7164 49.9717 49.2025 49.233 48.0864 47.9181C46.9702 46.6032 46.3431 44.8199 46.3431 42.9604C46.3431 41.1009 46.9702 39.3176 48.0864 38.0027C49.2025 36.6879 50.7164 35.9492 52.2949 35.9492H148.896C150.475 35.9492 151.988 36.6879 153.105 38.0027C154.221 39.3176 154.848 41.1009 154.848 42.9604C154.848 44.8199 154.221 46.6032 153.105 47.9181C151.988 49.233 150.475 49.9717 148.896 49.9717V49.9717ZM52.2949 37.0278C50.9592 37.0278 49.6783 37.6529 48.7338 38.7654C47.7894 39.878 47.2588 41.387 47.2588 42.9604C47.2588 44.5338 47.7894 46.0428 48.7338 47.1554C49.6783 48.268 50.9592 48.893 52.2949 48.893H148.896C150.232 48.893 151.513 48.268 152.457 47.1554C153.402 46.0428 153.932 44.5338 153.932 42.9604C153.932 41.387 153.402 39.878 152.457 38.7654C151.513 37.6529 150.232 37.0278 148.896 37.0278H52.2949Z" fill="#3F3D56"/>
<path d="M173.39 147.91H27.8012C25.7377 147.907 23.7594 146.941 22.3003 145.222C20.8412 143.503 20.0205 141.172 20.0181 138.742V83.7303C20.0205 81.2995 20.8412 78.9691 22.3003 77.2502C23.7594 75.5314 25.7377 74.5645 27.8012 74.5618H173.39C175.453 74.5645 177.431 75.5314 178.89 77.2502C180.35 78.9691 181.17 81.2995 181.173 83.7303V138.742C181.17 141.172 180.35 143.503 178.89 145.222C177.431 146.941 175.453 147.907 173.39 147.91V147.91ZM27.8012 75.6404C25.9804 75.6429 24.2349 76.496 22.9475 78.0126C21.66 79.5292 20.9358 81.5855 20.9338 83.7303V138.742C20.9358 140.886 21.66 142.943 22.9475 144.459C24.2349 145.976 25.9804 146.829 27.8012 146.831H173.39C175.21 146.829 176.956 145.976 178.243 144.459C179.531 142.943 180.255 140.886 180.257 138.742V83.7303C180.255 81.5855 179.531 79.5292 178.243 78.0126C176.956 76.496 175.21 75.6429 173.39 75.6404H27.8012Z" fill="#3F3D56"/>
<path d="M119.687 108.27H68.8685C67.8972 108.27 66.9656 107.815 66.2787 107.006C65.5918 106.197 65.2059 105.099 65.2059 103.955C65.2059 102.811 65.5918 101.713 66.2787 100.904C66.9656 100.095 67.8972 99.6404 68.8685 99.6404H119.687C120.659 99.6404 121.59 100.095 122.277 100.904C122.964 101.713 123.35 102.811 123.35 103.955C123.35 105.099 122.964 106.197 122.277 107.006C121.59 107.815 120.659 108.27 119.687 108.27Z" fill="#26C88D"/>
<path d="M166.843 122.831H68.8685C67.8972 122.831 66.9656 122.377 66.2787 121.568C65.5918 120.759 65.2059 119.661 65.2059 118.517C65.2059 117.373 65.5918 116.275 66.2787 115.466C66.9656 114.657 67.8972 114.202 68.8685 114.202H166.843C167.815 114.202 168.746 114.657 169.433 115.466C170.12 116.275 170.506 117.373 170.506 118.517C170.506 119.661 170.12 120.759 169.433 121.568C168.746 122.377 167.815 122.831 166.843 122.831Z" fill="#26C88D"/>
<path d="M44.4199 127.416C52.0054 127.416 58.1546 120.172 58.1546 111.236C58.1546 102.3 52.0054 95.0562 44.4199 95.0562C36.8344 95.0562 30.6851 102.3 30.6851 111.236C30.6851 120.172 36.8344 127.416 44.4199 127.416Z" fill="#26C88D"/>
<path d="M166.838 140.36H154.019C153.047 140.36 152.116 139.905 151.429 139.096C150.742 138.287 150.356 137.189 150.356 136.045C150.356 134.901 150.742 133.803 151.429 132.994C152.116 132.185 153.047 131.73 154.019 131.73H166.838C167.809 131.73 168.741 132.185 169.428 132.994C170.114 133.803 170.5 134.901 170.5 136.045C170.5 137.189 170.114 138.287 169.428 139.096C168.741 139.905 167.809 140.36 166.838 140.36Z" fill="white"/>
<path d="M166.838 140.36H154.019C153.047 140.36 152.116 139.905 151.429 139.096C150.742 138.287 150.356 137.189 150.356 136.045C150.356 134.901 150.742 133.803 151.429 132.994C152.116 132.185 153.047 131.73 154.019 131.73H166.838C167.809 131.73 168.741 132.185 169.428 132.994C170.114 133.803 170.5 134.901 170.5 136.045C170.5 137.189 170.114 138.287 169.428 139.096C168.741 139.905 167.809 140.36 166.838 140.36Z" fill="#CCCCCC"/>
<path d="M173.388 173.798H27.7993C25.736 173.801 23.758 174.768 22.299 176.487C20.8401 178.206 20.0191 180.536 20.0162 182.966V237.978C20.0191 240.408 20.8401 242.738 22.299 244.457C23.758 246.176 25.736 247.143 27.7993 247.146H173.388C175.451 247.144 177.43 246.177 178.889 244.458C180.348 242.739 181.169 240.408 181.171 237.978V182.966C181.169 180.535 180.348 178.205 178.889 176.486C177.43 174.767 175.451 173.8 173.388 173.798ZM180.255 237.978C180.254 240.123 179.53 242.179 178.242 243.696C176.955 245.213 175.209 246.066 173.388 246.067H27.7993C25.9786 246.065 24.2331 245.212 22.9457 243.695C21.6583 242.178 20.9341 240.122 20.9319 237.978V182.966C20.9341 180.822 21.6583 178.765 22.9457 177.249C24.2331 175.732 25.9786 174.879 27.7993 174.876H173.388C175.209 174.878 176.955 175.731 178.242 177.248C179.53 178.765 180.254 180.821 180.255 182.966V237.978Z" fill="#3F3D56"/>
<path d="M119.687 207.506H68.8685C67.8972 207.506 66.9656 207.051 66.2787 206.242C65.5918 205.433 65.2059 204.335 65.2059 203.191C65.2059 202.047 65.5918 200.949 66.2787 200.14C66.9656 199.331 67.8972 198.876 68.8685 198.876H119.687C120.659 198.876 121.59 199.331 122.277 200.14C122.964 200.949 123.35 202.047 123.35 203.191C123.35 204.335 122.964 205.433 122.277 206.242C121.59 207.051 120.659 207.506 119.687 207.506Z" fill="#26C88D"/>
<path d="M166.843 222.067H68.8685C67.8972 222.067 66.9656 221.613 66.2787 220.804C65.5918 219.995 65.2059 218.897 65.2059 217.753C65.2059 216.609 65.5918 215.511 66.2787 214.702C66.9656 213.893 67.8972 213.438 68.8685 213.438H166.843C167.815 213.438 168.746 213.893 169.433 214.702C170.12 215.511 170.506 216.609 170.506 217.753C170.506 218.897 170.12 219.995 169.433 220.804C168.746 221.613 167.815 222.067 166.843 222.067Z" fill="#26C88D"/>
<path d="M44.4199 226.652C52.0054 226.652 58.1546 219.408 58.1546 210.472C58.1546 201.536 52.0054 194.292 44.4199 194.292C36.8344 194.292 30.6851 201.536 30.6851 210.472C30.6851 219.408 36.8344 226.652 44.4199 226.652Z" fill="#26C88D"/>
<path d="M166.838 239.596H154.019C153.047 239.596 152.116 239.141 151.429 238.332C150.742 237.523 150.356 236.425 150.356 235.281C150.356 234.137 150.742 233.039 151.429 232.23C152.116 231.421 153.047 230.966 154.019 230.966H166.838C167.809 230.966 168.741 231.421 169.428 232.23C170.114 233.039 170.5 234.137 170.5 235.281C170.5 236.425 170.114 237.523 169.428 238.332C168.741 239.141 167.809 239.596 166.838 239.596Z" fill="#CCCCCC"/>
<path d="M299.542 300H235.447C235.325 300 235.209 299.943 235.123 299.842C235.037 299.741 234.989 299.604 234.989 299.461C234.989 299.318 235.037 299.18 235.123 299.079C235.209 298.978 235.325 298.921 235.447 298.921H299.542C299.664 298.921 299.78 298.978 299.866 299.079C299.952 299.18 300 299.318 300 299.461C300 299.604 299.952 299.741 299.866 299.842C299.78 299.943 299.664 300 299.542 300Z" fill="#3F3D56"/>
</g>
<defs>
<clipPath id="clip0_2_179">
<rect width="300" height="300" fill="white"/>
</clipPath>
</defs>
</svg>
