<svg width="300" height="300" viewBox="0 0 300 300" fill="none" xmlns="http://www.w3.org/2000/svg">
<g clip-path="url(#clip0_2_211)">
<path d="M80.5581 281.904L85.6157 284.025L94.8249 261.573L87.3605 258.442L80.5581 281.904Z" fill="#A0616A"/>
<path d="M87.1396 285.279L88.3354 281.155L86.9775 280.695L81.4534 278.811L80.1739 278.378L75.2116 291.787L74.9456 292.505L78.5366 294.012L78.8653 293.325L80.356 290.202L80.7335 294.108L80.8153 294.967L90.336 298.961C90.9038 299.194 91.5252 299.149 92.0653 298.834C92.6053 298.52 93.0205 297.962 93.2205 297.281C94.2769 295.193 87.7743 286.992 87.1396 285.279Z" fill="#2F2E41"/>
<path d="M44.7901 286.657H50.1462L52.6943 261.81L44.7888 261.81L44.7901 286.657Z" fill="#A0616A"/>
<path d="M51.9285 287.237V282.87L50.5204 282.974L44.7884 283.382L43.4618 283.48L42.4476 298.106L42.3933 298.89H46.1965L46.3187 298.112L46.8711 294.572L48.2973 298.112L48.6097 298.89H58.6928C59.2928 298.886 59.8671 298.597 60.291 298.086C60.7148 297.575 60.954 296.884 60.9566 296.162C61.3822 293.772 52.997 288.604 51.9285 287.237Z" fill="#2F2E41"/>
<path d="M83.0152 130.739L91.4273 144.149C91.4273 144.149 86.7816 143.761 91.4273 146.19C96.073 148.618 96.2047 147.76 96.1388 150.704C96.073 153.647 91.3372 153.207 93.7051 156.221C96.073 159.234 111.934 199.3 111.934 199.3C111.934 199.3 98.9372 257.307 97.2728 259.673C95.6084 262.04 93.7502 259.805 95.6084 262.04C97.4667 264.275 99.7896 261.481 97.4667 264.275C95.1439 267.068 91.9577 271.998 91.9577 271.998L82.6005 270.421C82.6005 270.421 72.38 258.687 88.6399 239.132C88.6399 239.132 92.7333 219.568 90.9189 219.572C89.1045 219.577 89.1045 222.731 89.1045 216.405V210.078L67.5718 161.563C67.5718 161.563 53.8302 148.671 54.046 142.778C54.2619 136.885 83.0152 130.739 83.0152 130.739Z" fill="#2F2E41"/>
<path d="M67.7343 144.149C67.7343 144.149 77.4903 203.374 76.0965 205.05C74.7028 206.726 74.7028 210.932 74.7028 210.932L52.4036 270.421L43.5767 270.979C43.3683 253.959 43.3109 241.049 51.0099 229.075L54.7264 141.355L67.7343 144.149Z" fill="#2F2E41"/>
<path d="M80.4 73.8462L69.7676 63.7509L64.1862 63.3606L55.9045 69.7414L53.8766 82.1838L49.0806 96.195L56.115 134.007C56.115 134.007 56.7748 136.72 55.0459 137.046C53.317 137.372 53.5243 141.371 53.5243 141.371C53.5243 141.371 53.8764 144.838 52.1975 145.143C50.5187 145.448 46.0421 145.448 49.9594 151.505C53.8766 157.562 84.8595 134.653 84.8595 134.653L89.3596 106.255C89.3596 106.255 98.0867 92.1581 88.6883 84.0843L80.4 73.8462Z" fill="#E6E6E6"/>
<path d="M33.9842 159.696C33.5157 158.993 33.1811 158.175 33.004 157.299C32.8268 156.424 32.8114 155.512 32.9588 154.629C33.1063 153.746 33.413 152.912 33.8573 152.186C34.3017 151.461 34.8729 150.862 35.5307 150.43L48.9047 96.4508L57.2673 101.514L42.7028 153.253C43.2318 154.63 43.3225 156.193 42.9576 157.645C42.5927 159.097 41.7976 160.338 40.723 161.132C39.6483 161.926 38.3687 162.219 37.1268 161.954C35.8848 161.689 34.7667 160.886 33.9843 159.696L33.9842 159.696Z" fill="#A0616A"/>
<path d="M57.8251 69.2419C57.8251 69.2419 55.4345 67.714 53.7994 74.3259C52.4904 79.6193 41.8683 111.149 41.7328 118.815C40.8586 119.038 40.0709 119.604 39.4938 120.424C38.9167 121.245 38.583 122.273 38.5452 123.347L51.6784 125.463C53.9734 123.135 54.5754 119.991 53.6875 119.058L56.539 109.691L68.4353 79.8903L59.5694 70.3095L57.8251 69.2419Z" fill="#E6E6E6"/>
<path d="M128 141.953C128.17 141.075 128.177 140.164 128.022 139.282C127.867 138.401 127.553 137.571 127.103 136.851C126.652 136.131 126.076 135.539 125.414 135.116C124.753 134.693 124.022 134.449 123.274 134.403L92.5945 92.2626L86.0865 101.602L117.822 140.678C117.84 142.195 118.321 143.651 119.172 144.771C120.023 145.89 121.186 146.595 122.44 146.752C123.695 146.91 124.954 146.508 125.979 145.623C127.003 144.739 127.723 143.433 128 141.953V141.953Z" fill="#A0616A"/>
<path d="M73.9795 72.7933C73.9795 72.7933 75.5855 70.1723 79.4373 75.2836C82.521 79.3757 103.436 102.28 106.314 109.122C107.182 108.868 108.096 108.969 108.912 109.409C109.727 109.848 110.397 110.602 110.818 111.55L99.737 120.289C96.8307 119.384 95.1573 116.862 95.6223 115.559L89.6834 108.596L68.2414 87.9128L72.7906 74.6631L73.9795 72.7933Z" fill="#E6E6E6"/>
<path d="M78.2743 49.1353C80.6889 41.668 77.6129 33.2604 71.404 30.3564C65.195 27.4524 58.2043 31.1518 55.7897 38.6191C53.3751 46.0865 56.451 54.4941 62.66 57.3981C68.8689 60.302 75.8597 56.6027 78.2743 49.1353Z" fill="#A0616A"/>
<path d="M81.4435 30.5793C80.7176 29.6378 79.7559 29.0071 78.7047 28.783C77.6534 28.5588 76.57 28.7535 75.6192 29.3375C75.862 27.7071 76.1047 26.0768 76.3474 24.4464C74.3303 24.075 72.3131 23.7037 70.296 23.3323C67.2529 22.7721 64.1171 22.2155 61.1244 23.0841C58.9819 23.7434 57.0297 25.0935 55.4782 26.9887C53.9267 28.884 52.8347 31.2526 52.3199 33.8393C51.0165 32.7765 49.4915 32.1745 47.918 32.1016C46.3444 32.0287 44.7854 32.4878 43.4179 33.4268C42.0505 34.3659 40.9292 35.7472 40.1816 37.414C39.434 39.0808 39.0899 40.9663 39.1884 42.8564C39.3335 45.6384 40.4151 48.2055 41.0845 50.8742C43.628 61.0156 39.4155 72.9862 31.5914 77.8504C34.1113 80.1494 36.7138 82.4983 39.7653 83.4988C42.8169 84.4993 46.4648 83.8417 48.4745 80.9043C49.5026 79.4014 49.9988 77.4877 50.4721 75.6267C52.3855 68.1021 54.2989 60.5775 56.2124 53.0529L59.3057 59.7699C60.2936 61.4311 59.94 63.7558 59.2284 65.6101C58.5167 67.4644 57.4829 69.1811 57.1644 71.1872C56.8458 73.1932 57.5861 75.679 59.2437 76.1223C61.4833 69.7859 63.7709 63.0338 62.9021 56.2285C62.564 53.5799 61.754 50.8635 62.3903 48.2954C62.882 46.3111 64.1837 44.7495 65.6299 43.6259C67.1439 42.4516 68.8444 41.6686 70.6234 41.3266C74.5549 40.5746 79.4484 41.5846 81.7561 37.6833C82.3543 36.6198 82.6475 35.3505 82.591 34.0682C82.5346 32.786 82.1317 31.561 81.4435 30.5793V30.5793Z" fill="#2F2E41"/>
<path d="M73.7749 120.431C79.4167 120.431 83.9903 114.931 83.9903 108.146C83.9903 101.36 79.4167 95.8597 73.7749 95.8597C68.1331 95.8597 63.5595 101.36 63.5595 108.146C63.5595 114.931 68.1331 120.431 73.7749 120.431Z" fill="#26C88D"/>
<path d="M76.1596 101.963C76.2139 102.23 76.2951 102.488 76.4015 102.731C76.4912 103.006 76.6423 103.245 76.8381 103.423C77.0339 103.6 77.2668 103.709 77.5109 103.738C77.5519 103.736 77.5926 103.729 77.6324 103.717C78.0691 103.587 78.3356 102.951 78.34 102.156C78.34 101.882 78.3122 101.608 78.2571 101.341C78.2038 101.077 78.1235 100.821 78.0181 100.58C77.7077 99.8757 77.2236 99.4571 76.7855 99.587C76.2054 99.7591 75.9258 100.823 76.1596 101.963Z" fill="white"/>
<path d="M76.947 102.728C77.0296 103.134 77.2294 103.492 77.5109 103.738C77.5519 103.736 77.5926 103.729 77.6324 103.717C78.0692 103.587 78.3356 102.951 78.34 102.156C78.34 101.882 78.3122 101.608 78.2571 101.341C78.2038 101.077 78.1236 100.821 78.0182 100.58C77.6399 100.695 77.3148 100.986 77.1141 101.388C76.9133 101.79 76.8532 102.272 76.947 102.728V102.728Z" fill="#3F3D56"/>
<path d="M71.8146 103.252C72.039 104.346 72.6554 105.113 73.2174 105.021C73.241 105.018 73.2643 105.012 73.2874 105.006C73.8662 104.834 74.1458 103.77 73.9121 102.63C73.8589 102.366 73.7788 102.111 73.6735 101.871C73.3627 101.164 72.8786 100.746 72.4405 100.876C71.8605 101.048 71.5808 102.112 71.8146 103.252Z" fill="white"/>
<path d="M72.645 104.004C72.7284 104.414 72.9315 104.775 73.2174 105.021C73.241 105.018 73.2643 105.012 73.2874 105.006C73.8662 104.834 74.1458 103.77 73.9121 102.63C73.8589 102.366 73.7788 102.111 73.6734 101.871C73.3056 101.997 72.9928 102.289 72.801 102.687C72.6091 103.085 72.5532 103.557 72.645 104.004Z" fill="#3F3D56"/>
<path d="M80.4205 106.853C81.042 109.884 80.0575 112.782 78.2216 113.327C76.3857 113.871 74.3935 111.856 73.772 108.825C76.0377 109.509 78.2554 108.893 80.4205 106.853Z" fill="white"/>
<path opacity="0.2" d="M63.8575 111.111C63.3553 108.662 63.4919 106.086 64.2488 103.733C65.0057 101.381 66.3463 99.3649 68.0885 97.9601C66.4628 100.206 65.5705 103.086 65.5777 106.063C65.5849 109.041 66.491 111.914 68.1274 114.149C69.7639 116.383 72.0195 117.827 74.4747 118.212C76.9299 118.596 79.4176 117.895 81.4754 116.239C80.2473 117.935 78.6556 119.193 76.8739 119.876C75.0921 120.559 73.1888 120.64 71.3713 120.111C69.5538 119.582 67.892 118.463 66.567 116.876C65.2421 115.289 64.3048 113.295 63.8575 111.111V111.111Z" fill="black"/>
<path d="M295.928 290.932C295.726 290.943 295.526 290.88 295.355 290.749C295.184 290.619 295.051 290.429 294.972 290.204C294.894 289.98 294.876 289.732 294.919 289.494C294.962 289.256 295.064 289.04 295.213 288.875L295.281 288.551C295.272 288.525 295.263 288.499 295.254 288.473C295.05 287.895 294.709 287.401 294.273 287.055C293.837 286.709 293.325 286.526 292.803 286.528C292.28 286.531 291.77 286.719 291.336 287.069C290.902 287.419 290.564 287.915 290.364 288.495C289.564 290.812 288.546 293.132 288.295 295.582C288.185 296.665 288.231 297.762 288.433 298.826C286.554 293.898 285.579 288.541 285.573 283.12C285.572 281.76 285.635 280.401 285.761 279.049C285.865 277.94 286.009 276.84 286.194 275.747C287.2 269.819 289.362 264.263 292.501 259.535C294.02 258.538 295.249 257.005 296.021 255.142C296.301 254.473 296.499 253.758 296.609 253.02C296.437 253.047 295.962 249.908 296.092 249.716C295.853 249.28 295.425 249.063 295.165 248.638C293.867 246.522 292.08 246.892 291.147 249.766C289.154 250.976 289.134 252.983 290.357 254.913C291.136 256.14 291.242 257.802 291.925 259.116C291.855 259.224 291.782 259.329 291.712 259.437C290.428 261.423 289.309 263.555 288.37 265.803C288.599 263.284 288.326 260.737 287.576 258.369C286.816 256.163 285.39 254.305 284.135 252.397C283.803 251.885 283.352 251.503 282.84 251.298C282.327 251.094 281.775 251.077 281.255 251.25C280.734 251.422 280.267 251.777 279.914 252.268C279.561 252.76 279.337 253.366 279.27 254.01C279.268 254.039 279.265 254.067 279.263 254.095C279.449 254.221 279.631 254.356 279.81 254.498C280.034 254.678 280.208 254.935 280.309 255.236C280.409 255.538 280.432 255.868 280.373 256.185C280.315 256.502 280.179 256.79 279.982 257.012C279.785 257.234 279.537 257.379 279.27 257.428L279.243 257.433C279.309 258.241 279.427 259.042 279.594 259.829C277.984 267.318 281.46 270.046 286.424 270.169C286.534 270.236 286.64 270.304 286.75 270.368C285.807 273.58 285.216 276.927 284.991 280.322C284.864 282.326 284.871 284.338 285.014 286.34L285.005 286.269C284.646 284.043 283.658 282.035 282.21 280.583C280.058 278.457 277.019 277.675 274.698 275.966C274.452 275.776 274.165 275.674 273.872 275.673C273.579 275.672 273.291 275.772 273.044 275.961C272.796 276.15 272.599 276.421 272.475 276.74C272.351 277.059 272.306 277.415 272.344 277.764L272.354 277.839C272.7 278.008 273.037 278.204 273.363 278.423C273.549 278.55 273.731 278.684 273.91 278.826C274.134 279.007 274.308 279.264 274.409 279.565C274.509 279.866 274.532 280.197 274.473 280.514C274.415 280.83 274.278 281.119 274.082 281.34C273.885 281.562 273.637 281.707 273.37 281.757L273.343 281.762C273.323 281.765 273.306 281.769 273.287 281.772C273.878 283.47 274.707 285.032 275.739 286.391C276.746 292.929 281.071 293.549 285.696 291.645H285.699C286.207 294.298 286.942 296.88 287.893 299.349H295.732C295.76 299.245 295.785 299.137 295.811 299.032C295.085 299.087 294.357 299.035 293.642 298.876C294.223 298.018 294.805 297.153 295.387 296.295C295.4 296.279 295.412 296.262 295.423 296.244C295.718 295.805 296.016 295.369 296.311 294.93L296.311 294.929C296.327 293.583 296.198 292.239 295.929 290.932L295.928 290.932Z" fill="#F2F2F2"/>
<path d="M2.2911e-06 299.377C-0.000200445 299.459 0.0130536 299.54 0.0389972 299.616C0.0649408 299.692 0.103066 299.76 0.151176 299.818C0.199287 299.876 0.256432 299.922 0.319329 299.953C0.382226 299.984 0.449639 300 0.517675 300H299.482C299.62 300 299.751 299.934 299.848 299.818C299.945 299.701 300 299.543 300 299.377C300 299.212 299.945 299.054 299.848 298.937C299.751 298.821 299.62 298.755 299.482 298.755H0.517649C0.449615 298.755 0.382209 298.771 0.319316 298.802C0.256422 298.833 0.199277 298.879 0.15117 298.937C0.103063 298.995 0.06494 299.063 0.0389972 299.139C0.0130544 299.215 -0.000198119 299.296 2.2911e-06 299.377V299.377Z" fill="#CCCCCC"/>
<path d="M211.824 290.81L205.513 290.81L202.512 261.536L211.825 261.537L211.824 290.81Z" fill="#FFB6B6"/>
<path d="M212.046 298.728L192.641 298.727V298.432C192.641 296.022 193.437 293.712 194.853 292.009C196.27 290.305 198.191 289.348 200.194 289.348H200.194L203.739 286.114L210.352 289.348L212.046 289.348L212.046 298.728Z" fill="#2F2E41"/>
<path d="M239.351 290.81L233.041 290.81L230.039 261.536L239.352 261.537L239.351 290.81Z" fill="#FFB6B6"/>
<path d="M239.573 298.728L220.168 298.727V298.431C220.168 296.022 220.964 293.712 222.38 292.008C223.797 290.305 225.718 289.348 227.721 289.348H227.721L231.266 286.114L237.879 289.348L239.573 289.348L239.573 298.728Z" fill="#2F2E41"/>
<path d="M196.112 131.308C196.112 131.308 190.04 153.734 191.161 156.686C192.282 159.638 194.194 157.338 192.282 159.638C190.37 161.937 188.7 159.493 190.491 163.398C192.282 167.303 194.994 199.45 196.187 201.007C197.38 202.563 199.021 202.605 197.563 204.117C196.106 205.629 194.194 202.563 196.106 205.629C198.018 208.695 203.091 279.426 203.091 279.426H213.003C213.003 279.426 215.471 276.004 214.074 273.776C212.677 271.549 214.197 270.691 214.074 269.204C213.951 267.717 214.416 264.511 214.502 263.048C214.589 261.585 216.264 226.732 212.239 206.599L219.577 168.264L228.466 214.597C228.466 214.597 224.378 253.461 228.466 265.954C228.466 265.954 225.17 269.256 226.632 271.169C228.094 273.082 229.369 271.549 228.094 273.082C226.819 274.615 230.006 279.981 230.006 279.981L240.841 279.215L246.973 206.599C246.973 206.599 248.007 199.026 246.973 197.728C245.939 196.431 245.939 201.03 245.939 196.431V190.299C245.939 190.299 245.341 152.582 245.261 150.361C245.181 148.14 237.533 132.043 237.533 132.043L196.112 131.308Z" fill="#2F2E41"/>
<path d="M196.202 53.8481V98.0703C197.389 102.352 198.001 106.834 198.016 111.348C197.977 118.866 196.602 127.529 196.607 131.317C196.588 131.819 196.634 132.322 196.741 132.808C202.827 154.021 235.029 134.743 237.957 132.938C238.096 132.855 238.17 132.808 238.17 132.808L237.535 109.046L237.644 102.214L238.396 55.3444L237.722 54.6956L231.815 49.0299L231.236 48.4754L229.461 51.5881L213.641 50.2802L207.603 48.2713L205.72 49.1921L197.229 53.3459L196.202 53.8481Z" fill="#26C88D"/>
<path d="M186.834 142.823L188.914 129.004L195.644 129.332L193.013 143.848C193.368 144.611 193.539 145.479 193.507 146.352C193.475 147.226 193.24 148.072 192.83 148.794C192.421 149.516 191.851 150.087 191.186 150.441C190.522 150.796 189.788 150.921 189.068 150.801C188.347 150.682 187.669 150.323 187.109 149.765C186.549 149.207 186.129 148.473 185.897 147.644C185.665 146.815 185.63 145.925 185.795 145.073C185.961 144.222 186.321 143.443 186.834 142.823V142.823Z" fill="#FFB6B6"/>
<path d="M197.235 53.754C200.694 54.8312 202.668 60.2226 203.883 64.263C205.447 69.4541 202.911 101.458 199.825 106.126C197.432 109.746 198 109.05 198.79 112.049C199.58 115.047 201.405 112.123 199.762 116.583C198.119 121.044 196.721 120.239 197.815 122.141C198.909 124.042 200.186 123.823 198.787 126.675C197.388 129.527 197.509 130.55 197.205 131.647C196.901 132.744 196.535 140.642 196.535 140.642C196.535 140.642 189.42 139.251 185.711 140.931C185.711 140.931 188.266 133.18 187.233 131.791C186.2 130.401 184.862 130.108 185.957 128.353C187.052 126.598 189.241 126.745 186.93 125.574C184.62 124.404 186.569 107.877 186.569 107.877C183.975 96.9987 185.783 80.7277 188.408 63.4541C188.796 60.8995 189.87 58.5682 191.464 56.8166C193.058 55.0649 195.085 53.9892 197.235 53.754V53.754Z" fill="#26C88D"/>
<path d="M242.117 141.906L242.62 127.875L249.324 127.102L248.354 141.914C248.791 142.612 249.059 143.443 249.125 144.314C249.192 145.185 249.055 146.061 248.73 146.843C248.406 147.626 247.906 148.284 247.287 148.744C246.669 149.203 245.956 149.446 245.229 149.446C244.501 149.445 243.789 149.2 243.171 148.739C242.553 148.277 242.055 147.618 241.731 146.835C241.408 146.051 241.273 145.175 241.341 144.304C241.409 143.433 241.678 142.603 242.117 141.906V141.906Z" fill="#FFB6B6"/>
<path d="M235.109 53.9789L235.296 54.0055C237.044 54.2534 238.715 55.01 240.165 56.2095C241.614 57.4091 242.799 59.0155 243.616 60.8898C245.751 65.7779 252.504 98.8851 250.851 103.429C249.309 107.666 249.372 106.624 250.493 109.466C251.614 112.308 253.092 109.113 251.967 113.8C250.843 118.487 249.366 117.918 250.665 119.623C251.963 121.329 253.204 120.904 252.139 123.957C251.074 127.011 251.31 128.005 251.132 129.142C250.954 130.278 251.481 138.163 251.481 138.163C251.481 138.163 244.276 137.944 240.79 140.214C240.79 140.214 242.449 132.118 241.268 130.91C240.087 129.701 238.729 129.629 239.616 127.712C240.503 125.795 242.688 125.584 240.267 124.8C237.846 124.017 237.914 107.325 237.914 107.325L235.109 53.9789Z" fill="#26C88D"/>
<path d="M217.834 36.0975C218.117 36.176 218.4 36.244 218.682 36.2963C219.546 36.467 220.423 36.5214 221.297 36.4585C223.573 36.3115 225.77 35.4093 227.646 33.8518C229.521 32.2943 231.002 30.1425 231.922 27.6349C232.843 25.1274 233.168 22.3621 232.862 19.6458C232.556 16.9295 231.63 14.3683 230.187 12.2463C228.744 10.1243 226.841 8.52434 224.688 7.62393C222.535 6.72351 220.217 6.55781 217.991 7.1452C215.765 7.73259 213.717 9.05012 212.076 10.9517C210.434 12.8532 209.262 15.2644 208.691 17.918C208.665 18.0383 208.638 18.1534 208.617 18.2737C207.875 22.1073 208.429 26.1384 210.157 29.4808C211.886 32.8232 214.647 35.2032 217.834 36.0975V36.0975Z" fill="#FFB6B6"/>
<path d="M229.223 34.3462C230.939 32.7308 231.106 29.6517 232.571 27.7107C235.019 24.4655 236.17 20.9741 234.887 17.1288C233.753 13.7277 233.994 9.54694 231.55 7.35772C232.75 6.83522 233.033 5.75016 231.974 5.73013C231.26 5.71662 228.598 7.35802 229.879 5.31327C231.159 3.26853 228.735 4.07563 228.895 3.23865C229.056 2.40167 230.084 1.9381 230.537 2.60156C229.089 0.560942 225.927 0.995999 224.9 3.37719C223.456 0.775694 221.924 -1.01438 219.716 0.636533C217.547 2.25796 217.575 4.26228 215.242 3.78058C214.146 3.55415 214.042 6.04584 213.293 7.03523C212.544 8.02461 211.449 8.79034 210.355 8.54185C209.262 8.29337 208.426 6.65475 209.039 5.5377L206.462 12.6077L205.423 11.0757C203.773 12.3691 204.315 15.744 205.976 17.0171C207.637 18.2901 210.807 15.3477 211.709 17.4538C213.13 20.7739 216.463 19.0974 218.752 16.7511C221.528 13.9057 224.879 22.5572 223.542 26.6381C224.929 24.9995 227.496 26.3593 228.215 28.5324C228.934 30.7056 228.407 33.1539 227.874 35.4031L229.223 34.3462Z" fill="#2F2E41"/>
<path d="M205.72 49.1921L206.15 49.8512L207.307 51.6195L211.59 66.8328L231.815 49.0299L231.236 48.4753L228.156 40.6019L212.336 39.294L207.603 48.2713L205.72 49.1921Z" fill="#3F3D56"/>
<path d="M227.25 87.9952C226.231 101.159 218.94 111.108 210.965 110.215C202.991 109.322 197.352 97.9268 198.37 84.7625C206.643 91.2895 216.228 92.5354 227.25 87.9952Z" fill="white"/>
<path d="M208.41 72.3388C208.369 73.1214 208.249 73.8951 208.052 74.6427C207.524 76.6011 206.502 77.9807 205.357 78.141C205.241 78.1597 205.123 78.1645 205.007 78.1553C203.726 78.0557 202.711 76.43 202.366 74.2006C202.251 73.4288 202.215 72.6429 202.258 71.8604C202.297 71.0854 202.416 70.3191 202.611 69.5791C203.188 67.4122 204.373 65.9436 205.658 66.0435C207.359 66.1758 208.59 68.9958 208.41 72.3388Z" fill="white"/>
<path d="M206.518 74.9621C206.456 76.1537 206.044 77.2801 205.357 78.141C205.241 78.1597 205.123 78.1645 205.007 78.1553C203.726 78.0557 202.711 76.43 202.367 74.2007C202.251 73.4288 202.215 72.6429 202.258 71.8604C202.297 71.0854 202.416 70.3192 202.611 69.5791C203.722 69.673 204.756 70.2921 205.488 71.3008C206.221 72.3096 206.591 73.626 206.518 74.9621V74.9621Z" fill="#3F3D56"/>
<path d="M221.153 73.3296C220.981 76.5392 219.57 79.0661 217.953 79.1481C217.885 79.1522 217.817 79.1516 217.75 79.1462C216.052 79.0142 214.822 76.1942 215.001 72.8513C215.04 72.0778 215.159 71.313 215.354 70.5746C215.932 68.4031 217.116 66.9345 218.401 67.0344C220.102 67.1667 221.333 69.9867 221.153 73.3296Z" fill="white"/>
<path d="M219.135 75.9432C219.072 77.1471 218.653 78.2842 217.953 79.1482C217.885 79.1522 217.817 79.1516 217.75 79.1462C216.052 79.0142 214.822 76.1942 215.001 72.8513C215.04 72.0778 215.159 71.3131 215.354 70.5746C216.44 70.7059 217.441 71.3389 218.146 72.3404C218.852 73.3419 219.206 74.6335 219.135 75.9432V75.9432Z" fill="#3F3D56"/>
<path d="M113.964 42.8627C117.285 42.8627 119.978 39.6247 119.978 35.6305C119.978 31.6362 117.285 28.3983 113.964 28.3983C110.643 28.3983 107.951 31.6362 107.951 35.6305C107.951 39.6247 110.643 42.8627 113.964 42.8627Z" fill="#F2F2F2"/>
<path d="M114.726 32.6154C114.72 32.777 114.73 32.9389 114.757 33.0976C114.77 33.2705 114.822 33.4359 114.908 33.5753C114.994 33.7147 115.11 33.8228 115.244 33.8876C115.268 33.8946 115.292 33.8987 115.316 33.9C115.58 33.9141 115.819 33.608 115.931 33.1601C115.969 33.0049 115.991 32.8447 115.997 32.6831C116.003 32.5231 115.993 32.3628 115.967 32.2057C115.889 31.7458 115.673 31.4127 115.408 31.3986C115.057 31.3799 114.752 31.925 114.726 32.6154Z" fill="white"/>
<path d="M115.065 33.2044C115.056 33.4504 115.119 33.6925 115.244 33.8876C115.268 33.8946 115.292 33.8987 115.316 33.9C115.58 33.9141 115.819 33.608 115.931 33.1601C115.969 33.0049 115.991 32.8447 115.997 32.6831C116.003 32.5231 115.993 32.3628 115.967 32.2058C115.737 32.1951 115.514 32.2942 115.345 32.4813C115.176 32.6684 115.075 32.9284 115.065 33.2044V33.2044Z" fill="#F2F2F2"/>
<path d="M112.094 32.4753C112.07 33.1381 112.312 33.6944 112.642 33.7548C112.656 33.7574 112.67 33.7591 112.684 33.7598C113.035 33.7785 113.34 33.2333 113.365 32.543C113.371 32.3833 113.361 32.2233 113.335 32.0666C113.257 31.6057 113.042 31.2726 112.776 31.2585C112.425 31.2397 112.12 31.7848 112.094 32.4753Z" fill="white"/>
<path d="M112.46 33.0656C112.45 33.3142 112.515 33.5587 112.642 33.7547C112.656 33.7574 112.67 33.7591 112.684 33.7598C113.035 33.7785 113.34 33.2333 113.365 32.5429C113.371 32.3833 113.361 32.2232 113.335 32.0665C113.11 32.0642 112.893 32.167 112.73 32.3534C112.566 32.5398 112.47 32.7951 112.46 33.0656V33.0656Z" fill="#F2F2F2"/>
<path d="M116.457 36.2282C116.39 38.0639 115.433 39.504 114.321 39.4448C113.209 39.3856 112.363 37.8494 112.43 36.0137C113.038 36.4352 113.721 36.6747 114.422 36.712C115.123 36.7493 115.821 36.5834 116.457 36.2282V36.2282Z" fill="white"/>
<path d="M145.719 117.674C149.04 117.674 151.732 114.436 151.732 110.441C151.732 106.447 149.04 103.209 145.719 103.209C142.397 103.209 139.705 106.447 139.705 110.441C139.705 114.436 142.397 117.674 145.719 117.674Z" fill="#F2F2F2"/>
<path d="M146.481 107.426C146.474 107.588 146.485 107.75 146.511 107.908C146.524 108.081 146.576 108.247 146.662 108.386C146.748 108.526 146.865 108.634 146.999 108.698C147.022 108.705 147.046 108.71 147.07 108.711C147.335 108.725 147.573 108.419 147.685 107.971C147.723 107.816 147.745 107.656 147.751 107.494C147.758 107.334 147.748 107.174 147.721 107.017C147.643 106.557 147.428 106.224 147.162 106.209C146.811 106.191 146.506 106.736 146.481 107.426Z" fill="white"/>
<path d="M146.82 108.015C146.81 108.261 146.874 108.503 146.999 108.698C147.022 108.705 147.046 108.71 147.07 108.711C147.335 108.725 147.573 108.419 147.685 107.971C147.723 107.816 147.745 107.656 147.751 107.494C147.758 107.334 147.748 107.174 147.721 107.017C147.492 107.006 147.268 107.105 147.099 107.292C146.93 107.479 146.83 107.739 146.82 108.015V108.015Z" fill="#F2F2F2"/>
<path d="M143.849 107.286C143.824 107.949 144.067 108.505 144.397 108.566C144.411 108.568 144.424 108.57 144.438 108.571C144.789 108.589 145.094 108.044 145.119 107.354C145.126 107.194 145.116 107.034 145.089 106.877C145.011 106.417 144.796 106.083 144.531 106.069C144.179 106.051 143.874 106.596 143.849 107.286Z" fill="white"/>
<path d="M144.214 107.876C144.204 108.125 144.269 108.37 144.397 108.566C144.411 108.568 144.424 108.57 144.438 108.571C144.789 108.589 145.094 108.044 145.119 107.354C145.126 107.194 145.116 107.034 145.089 106.877C144.864 106.875 144.647 106.978 144.484 107.164C144.321 107.351 144.224 107.606 144.214 107.876V107.876Z" fill="#F2F2F2"/>
<path d="M148.212 111.039C148.144 112.875 147.188 114.315 146.076 114.256C144.964 114.196 144.117 112.66 144.185 110.825C144.792 111.246 145.475 111.486 146.176 111.523C146.877 111.56 147.575 111.394 148.212 111.039V111.039Z" fill="white"/>
<path d="M261.426 32.9228C264.747 32.9228 267.44 29.6848 267.44 25.6906C267.44 21.6963 264.747 18.4584 261.426 18.4584C258.105 18.4584 255.413 21.6963 255.413 25.6906C255.413 29.6848 258.105 32.9228 261.426 32.9228Z" fill="#F2F2F2"/>
<path d="M262.188 22.6755C262.182 22.8371 262.192 22.999 262.219 23.1577C262.231 23.3306 262.284 23.496 262.37 23.6354C262.456 23.7748 262.572 23.8829 262.706 23.9477C262.73 23.9547 262.754 23.9588 262.778 23.9601C263.042 23.9742 263.281 23.6681 263.393 23.2202C263.431 23.065 263.453 22.9048 263.459 22.7432C263.465 22.5832 263.455 22.4229 263.429 22.2659C263.351 21.8059 263.135 21.4728 262.87 21.4587C262.518 21.44 262.214 21.9851 262.188 22.6755Z" fill="white"/>
<path d="M262.527 23.2645C262.518 23.5105 262.581 23.7526 262.706 23.9477C262.73 23.9547 262.754 23.9588 262.778 23.9601C263.042 23.9742 263.281 23.6681 263.393 23.2202C263.431 23.065 263.453 22.9048 263.459 22.7432C263.465 22.5832 263.455 22.4229 263.429 22.2658C263.199 22.2552 262.976 22.3542 262.807 22.5414C262.638 22.7285 262.537 22.9885 262.527 23.2645V23.2645Z" fill="#F2F2F2"/>
<path d="M259.556 22.5354C259.532 23.1982 259.774 23.7544 260.104 23.8148C260.118 23.8175 260.132 23.8192 260.146 23.8199C260.497 23.8386 260.801 23.2934 260.827 22.6031C260.833 22.4434 260.823 22.2834 260.797 22.1267C260.719 21.6658 260.503 21.3327 260.238 21.3185C259.887 21.2998 259.582 21.8449 259.556 22.5354Z" fill="white"/>
<path d="M259.921 23.1257C259.912 23.3743 259.977 23.6188 260.104 23.8148C260.118 23.8175 260.132 23.8192 260.146 23.8199C260.497 23.8386 260.801 23.2934 260.827 22.603C260.833 22.4434 260.823 22.2833 260.797 22.1266C260.572 22.1243 260.355 22.2271 260.191 22.4135C260.028 22.5999 259.931 22.8552 259.921 23.1257V23.1257Z" fill="#F2F2F2"/>
<path d="M263.919 26.2883C263.852 28.124 262.895 29.5641 261.783 29.5049C260.671 29.4456 259.824 27.9095 259.892 26.0738C260.5 26.4953 261.183 26.7348 261.884 26.7721C262.585 26.8094 263.283 26.6435 263.919 26.2883V26.2883Z" fill="white"/>
<path d="M8.26157 224.92C11.5827 224.92 14.275 221.682 14.275 217.688C14.275 213.693 11.5827 210.455 8.26157 210.455C4.94044 210.455 2.24814 213.693 2.24814 217.688C2.24814 221.682 4.94044 224.92 8.26157 224.92Z" fill="#F2F2F2"/>
<path d="M9.02363 214.673C9.01745 214.834 9.02769 214.996 9.05413 215.155C9.06689 215.328 9.11918 215.493 9.20523 215.633C9.29127 215.772 9.40771 215.88 9.54166 215.945C9.56511 215.952 9.58907 215.956 9.6132 215.957C9.87773 215.971 10.1161 215.665 10.2283 215.217C10.2663 215.062 10.2884 214.902 10.2941 214.74C10.3005 214.58 10.2905 214.42 10.2642 214.263C10.1862 213.803 9.97063 213.47 9.70532 213.456C9.35394 213.437 9.04905 213.982 9.02363 214.673Z" fill="white"/>
<path d="M9.36268 215.262C9.35321 215.508 9.41662 215.75 9.54164 215.945C9.56508 215.952 9.58905 215.956 9.61318 215.957C9.8777 215.971 10.116 215.665 10.2283 215.217C10.2663 215.062 10.2884 214.902 10.2941 214.74C10.3005 214.58 10.2905 214.42 10.2642 214.263C10.0347 214.252 9.81099 214.351 9.64205 214.539C9.47311 214.726 9.37267 214.986 9.36268 215.262V215.262Z" fill="#F2F2F2"/>
<path d="M6.3918 214.532C6.36739 215.195 6.60957 215.752 6.93964 215.812C6.95347 215.815 6.96741 215.816 6.9814 215.817C7.332 215.836 7.63689 215.291 7.66231 214.6C7.66872 214.44 7.65868 214.28 7.63239 214.124C7.55442 213.663 7.33883 213.33 7.07352 213.316C6.72212 213.297 6.41722 213.842 6.3918 214.532Z" fill="white"/>
<path d="M6.75694 215.123C6.74737 215.371 6.81219 215.616 6.93964 215.812C6.95347 215.815 6.96741 215.816 6.9814 215.817C7.33201 215.836 7.63689 215.291 7.66231 214.6C7.66872 214.44 7.65868 214.28 7.63239 214.124C7.40727 214.121 7.19018 214.224 7.02687 214.411C6.86356 214.597 6.76678 214.852 6.75694 215.123V215.123Z" fill="#F2F2F2"/>
<path d="M10.7546 218.285C10.687 220.121 9.73068 221.561 8.61864 221.502C7.5066 221.443 6.65991 219.907 6.72751 218.071C7.33527 218.492 8.0184 218.732 8.71927 218.769C9.42014 218.807 10.1182 218.641 10.7546 218.285Z" fill="white"/>
<path d="M9.56656 110.349C12.8877 110.349 15.58 107.111 15.58 103.117C15.58 99.123 12.8877 95.885 9.56656 95.885C6.24543 95.885 3.55313 99.123 3.55313 103.117C3.55313 107.111 6.24543 110.349 9.56656 110.349Z" fill="#F2F2F2"/>
<path d="M10.3286 100.102C10.3224 100.264 10.3327 100.426 10.3591 100.584C10.3719 100.757 10.4241 100.923 10.5102 101.062C10.5962 101.201 10.7127 101.31 10.8466 101.374C10.8701 101.381 10.894 101.385 10.9182 101.387C11.1827 101.401 11.421 101.095 11.5332 100.647C11.5712 100.492 11.5933 100.331 11.5991 100.17C11.6055 100.01 11.5955 99.8495 11.5692 99.6925C11.4912 99.2325 11.2756 98.8994 11.0103 98.8853C10.6589 98.8666 10.354 99.4118 10.3286 100.102Z" fill="white"/>
<path d="M10.6677 100.691C10.6582 100.937 10.7216 101.179 10.8466 101.374C10.8701 101.381 10.894 101.385 10.9182 101.387C11.1827 101.401 11.421 101.095 11.5332 100.647C11.5712 100.492 11.5933 100.331 11.5991 100.17C11.6055 100.01 11.5955 99.8495 11.5692 99.6925C11.3397 99.6818 11.116 99.7809 10.947 99.968C10.7781 100.155 10.6777 100.415 10.6677 100.691Z" fill="#F2F2F2"/>
<path d="M7.69676 99.962C7.67235 100.625 7.91454 101.181 8.2446 101.241C8.25843 101.244 8.27238 101.246 8.28636 101.247C8.63697 101.265 8.94185 100.72 8.96727 100.03C8.97369 99.87 8.96364 99.71 8.93735 99.5533C8.85938 99.0924 8.64379 98.7593 8.37848 98.7452C8.02708 98.7264 7.72219 99.2716 7.69676 99.962Z" fill="white"/>
<path d="M8.0619 100.552C8.05233 100.801 8.11715 101.045 8.2446 101.241C8.25843 101.244 8.27238 101.246 8.28637 101.247C8.63697 101.265 8.94185 100.72 8.96727 100.03C8.97369 99.87 8.96364 99.71 8.93735 99.5532C8.71223 99.5509 8.49514 99.6538 8.33183 99.8401C8.16852 100.027 8.07175 100.282 8.0619 100.552Z" fill="#F2F2F2"/>
<path d="M12.0595 103.715C11.9919 105.551 11.0356 106.991 9.9236 106.932C8.81156 106.872 7.96487 105.336 8.03247 103.5C8.64024 103.922 9.32336 104.161 10.0242 104.199C10.7251 104.236 11.4232 104.07 12.0595 103.715V103.715Z" fill="white"/>
</g>
<defs>
<clipPath id="clip0_2_211">
<rect width="300" height="300" fill="white"/>
</clipPath>
</defs>
</svg>
