<svg width="300" height="300" viewBox="0 0 300 300" fill="none" xmlns="http://www.w3.org/2000/svg">
<g clip-path="url(#clip0_1_142)">
<path d="M300 71.2912H298.557V26.135C298.557 19.2036 296.142 12.556 291.845 7.65477C287.547 2.7535 281.719 3.40918e-09 275.641 3.40916e-09H191.756C188.747 -5.54295e-05 185.767 0.675892 182.987 1.98925C180.207 3.30261 177.68 5.22765 175.552 7.65447C173.424 10.0813 171.737 12.9624 170.585 16.1332C169.433 19.304 168.84 22.7025 168.84 26.1346V273.865C168.84 280.796 171.255 287.444 175.552 292.345C179.85 297.247 185.678 300 191.756 300H275.64C281.718 300 287.546 297.247 291.844 292.345C296.141 287.444 298.555 280.796 298.555 273.865V103.434H299.999L300 71.2912Z" fill="#3F3D56"/>
<path d="M293.883 24.3845V275.615C293.883 280.87 292.052 285.91 288.794 289.626C285.536 293.343 281.117 295.432 276.51 295.434H190.903C186.294 295.434 181.872 293.347 178.612 289.63C175.352 285.913 173.52 280.872 173.518 275.615V24.3845C173.52 19.1273 175.352 14.086 178.612 10.3694C181.872 6.65284 186.293 4.56531 190.903 4.56598H201.287C200.777 5.99609 200.583 7.54715 200.722 9.08284C200.861 10.6185 201.328 12.0918 202.083 13.3732C202.838 14.6546 203.858 15.7049 205.052 16.4317C206.246 17.1586 207.578 17.5397 208.932 17.5417H257.738C259.091 17.5397 260.424 17.1586 261.618 16.4317C262.812 15.7049 263.832 14.6546 264.587 13.3732C265.342 12.0918 265.809 10.6185 265.948 9.08284C266.087 7.54715 265.892 5.99609 265.383 4.56598H276.506C281.114 4.56687 285.533 6.65466 288.792 10.3703C292.05 14.086 293.882 19.1255 293.883 24.3807V24.3845Z" fill="white"/>
<path d="M234.619 124.892C224.872 124.896 215.523 120.485 208.628 112.628C201.734 104.771 197.858 94.112 197.853 82.996V82.9588C197.853 82.871 197.853 82.7786 197.858 82.6908C197.969 59.7279 214.462 41.0284 234.619 41.0284C244.37 41.0278 253.721 45.4449 260.616 53.3081C267.512 61.1713 271.386 71.8365 271.386 82.9573C271.387 94.0782 267.514 104.744 260.619 112.608C253.725 120.472 244.374 124.89 234.623 124.891H234.619V124.892ZM234.619 41.9106C225.117 41.9348 216.007 46.2346 209.268 53.8758C202.53 61.5169 198.708 71.8821 198.632 82.719C198.628 82.8128 198.628 82.8879 198.628 82.9592C198.627 91.0789 200.737 99.0165 204.692 105.768C208.646 112.52 214.268 117.783 220.845 120.891C227.422 123.999 234.659 124.813 241.642 123.23C248.625 121.647 255.039 117.738 260.074 111.997C265.109 106.256 268.538 98.9419 269.927 90.9784C271.317 83.015 270.605 74.7604 267.882 67.2584C265.158 59.7564 260.545 53.3441 254.626 48.8322C248.707 44.3203 241.748 41.9116 234.628 41.9106H234.619V41.9106Z" fill="#E6E6E6"/>
<path d="M272.637 168.978H196.566C196.192 168.977 195.834 168.808 195.57 168.507C195.306 168.206 195.157 167.797 195.157 167.371V145.85C195.157 145.425 195.306 145.016 195.57 144.715C195.834 144.414 196.192 144.244 196.566 144.244H272.637C273.01 144.244 273.368 144.414 273.632 144.715C273.896 145.016 274.045 145.425 274.045 145.85V167.372C274.045 167.798 273.896 168.206 273.632 168.507C273.368 168.808 273.01 168.978 272.637 168.978V168.978ZM196.566 144.886C196.341 144.887 196.127 144.988 195.968 145.169C195.81 145.35 195.72 145.595 195.72 145.85V167.372C195.72 167.627 195.81 167.872 195.968 168.053C196.127 168.234 196.341 168.336 196.566 168.336H272.637C272.861 168.336 273.076 168.234 273.234 168.053C273.393 167.872 273.482 167.627 273.482 167.372V145.85C273.482 145.595 273.393 145.35 273.234 145.169C273.076 144.988 272.861 144.887 272.637 144.886H196.566Z" fill="#E6E6E6"/>
<path d="M220.091 152.112C219.83 152.112 219.579 152.231 219.394 152.442C219.209 152.653 219.105 152.939 219.105 153.237C219.105 153.535 219.209 153.822 219.394 154.032C219.579 154.243 219.83 154.362 220.091 154.362H266.579C266.708 154.368 266.837 154.344 266.959 154.293C267.08 154.242 267.192 154.163 267.287 154.063C267.382 153.963 267.459 153.842 267.513 153.708C267.567 153.574 267.597 153.428 267.602 153.281C267.607 153.133 267.587 152.986 267.542 152.847C267.497 152.709 267.428 152.582 267.34 152.473C267.252 152.365 267.146 152.277 267.029 152.216C266.911 152.154 266.784 152.119 266.654 152.114C266.64 152.113 266.625 152.113 266.611 152.113H220.091V152.112Z" fill="#E6E6E6"/>
<path d="M220.091 158.86C219.83 158.86 219.579 158.979 219.394 159.19C219.209 159.401 219.105 159.687 219.105 159.985C219.105 160.283 219.209 160.569 219.394 160.78C219.579 160.991 219.83 161.11 220.091 161.11H266.579C266.708 161.115 266.837 161.092 266.959 161.041C267.08 160.989 267.192 160.911 267.287 160.811C267.382 160.711 267.459 160.59 267.513 160.456C267.567 160.321 267.597 160.176 267.602 160.029C267.607 159.881 267.587 159.734 267.542 159.595C267.497 159.457 267.428 159.33 267.34 159.221C267.252 159.113 267.146 159.025 267.029 158.964C266.911 158.902 266.784 158.867 266.654 158.862C266.64 158.861 266.625 158.861 266.611 158.861H220.091V158.86Z" fill="#E6E6E6"/>
<path d="M272.637 204.967H196.566C196.192 204.967 195.834 204.797 195.57 204.496C195.306 204.195 195.157 203.786 195.157 203.361V181.84C195.157 181.414 195.306 181.005 195.57 180.704C195.834 180.403 196.192 180.234 196.566 180.233H272.637C273.01 180.234 273.368 180.403 273.632 180.704C273.896 181.005 274.045 181.414 274.045 181.84V203.361C274.045 203.787 273.896 204.195 273.632 204.496C273.368 204.797 273.01 204.967 272.637 204.967V204.967ZM196.566 180.876C196.341 180.876 196.127 180.977 195.968 181.158C195.81 181.339 195.72 181.584 195.72 181.84V203.361C195.72 203.617 195.81 203.862 195.968 204.042C196.127 204.223 196.341 204.325 196.566 204.325H272.637C272.861 204.325 273.076 204.223 273.234 204.042C273.393 203.862 273.482 203.617 273.482 203.361V181.84C273.482 181.584 273.393 181.339 273.234 181.158C273.076 180.977 272.861 180.876 272.637 180.876H196.566Z" fill="#E6E6E6"/>
<path d="M220.091 188.1C219.83 188.1 219.579 188.218 219.394 188.429C219.209 188.64 219.105 188.926 219.105 189.225C219.105 189.523 219.209 189.809 219.394 190.02C219.579 190.231 219.83 190.349 220.091 190.349H266.579C266.837 190.348 267.084 190.231 267.267 190.024C267.45 189.817 267.555 189.537 267.559 189.243C267.564 188.949 267.467 188.665 267.289 188.451C267.112 188.238 266.869 188.112 266.611 188.1H220.091V188.1Z" fill="#E6E6E6"/>
<path d="M220.091 194.85C219.83 194.85 219.579 194.968 219.394 195.179C219.209 195.39 219.105 195.676 219.105 195.974C219.105 196.273 219.209 196.559 219.394 196.77C219.579 196.98 219.83 197.099 220.091 197.099H266.579C266.837 197.097 267.084 196.981 267.267 196.774C267.45 196.567 267.555 196.286 267.559 195.992C267.564 195.698 267.467 195.414 267.289 195.201C267.112 194.987 266.869 194.861 266.611 194.85H220.091V194.85Z" fill="#E6E6E6"/>
<path d="M272.637 240.955H196.566C196.192 240.955 195.834 240.786 195.57 240.484C195.306 240.183 195.157 239.775 195.157 239.349V217.828C195.157 217.402 195.306 216.994 195.57 216.693C195.834 216.391 196.192 216.222 196.566 216.221H272.637C273.01 216.222 273.368 216.391 273.632 216.693C273.896 216.994 274.045 217.402 274.045 217.828V239.349C274.045 239.775 273.896 240.184 273.632 240.485C273.368 240.786 273.01 240.955 272.637 240.956V240.955ZM196.566 216.864C196.341 216.864 196.127 216.966 195.968 217.147C195.81 217.327 195.72 217.572 195.72 217.828V239.349C195.72 239.605 195.81 239.85 195.968 240.031C196.127 240.212 196.341 240.313 196.566 240.313H272.637C272.861 240.313 273.076 240.212 273.234 240.031C273.393 239.85 273.482 239.605 273.482 239.349V217.828C273.482 217.572 273.393 217.327 273.234 217.147C273.076 216.966 272.861 216.864 272.637 216.864H196.566Z" fill="#E6E6E6"/>
<path d="M220.091 224.09C219.83 224.09 219.579 224.208 219.394 224.419C219.209 224.63 219.105 224.916 219.105 225.214C219.105 225.513 219.209 225.799 219.394 226.01C219.579 226.221 219.83 226.339 220.091 226.339H266.579C266.708 226.345 266.837 226.321 266.959 226.27C267.08 226.219 267.192 226.141 267.287 226.04C267.382 225.94 267.459 225.819 267.513 225.685C267.567 225.551 267.597 225.406 267.602 225.258C267.607 225.11 267.587 224.963 267.542 224.825C267.497 224.686 267.428 224.559 267.34 224.451C267.252 224.342 267.146 224.255 267.029 224.193C266.911 224.131 266.784 224.096 266.654 224.091C266.64 224.09 266.625 224.09 266.611 224.09H220.091V224.09Z" fill="#E6E6E6"/>
<path d="M220.091 230.838C219.83 230.838 219.579 230.956 219.394 231.167C219.209 231.378 219.105 231.664 219.105 231.963C219.105 232.261 219.209 232.547 219.394 232.758C219.579 232.969 219.83 233.087 220.091 233.087H266.579C266.708 233.093 266.837 233.07 266.959 233.018C267.08 232.967 267.192 232.889 267.287 232.789C267.382 232.688 267.459 232.567 267.513 232.433C267.567 232.299 267.597 232.154 267.602 232.006C267.607 231.859 267.587 231.711 267.542 231.573C267.497 231.434 267.428 231.307 267.34 231.199C267.252 231.09 267.146 231.003 267.029 230.941C266.911 230.879 266.784 230.845 266.654 230.839C266.64 230.838 266.625 230.838 266.611 230.838H220.091V230.838Z" fill="#E6E6E6"/>
<path d="M246.236 81.9415H235.514V69.7125H233.727V81.9415H223.005V83.9795H233.727V96.2085H235.514V83.9795H246.236V81.9415Z" fill="#26C88D"/>
<path d="M81.5809 235.722C81.5809 235.722 72.8138 246.673 71.5613 271.908C70.3089 297.143 69.8914 300 69.8914 300H101.203L107.044 282.861L113.726 299.999H143.367C143.367 299.999 146.706 247.624 143.367 246.195C140.027 244.767 81.5809 235.722 81.5809 235.722Z" fill="#2F2E41"/>
<path d="M123.536 106.926C131.837 106.926 138.565 99.2521 138.565 89.7856C138.565 80.3191 131.837 72.6449 123.536 72.6449C115.236 72.6449 108.507 80.3191 108.507 89.7856C108.507 99.2521 115.236 106.926 123.536 106.926Z" fill="#FFB8B8"/>
<path d="M188.455 236.2L165.493 188.585L152.133 163.826L167.998 155.732L176.765 175.253C176.765 175.253 188.455 194.775 191.377 210.964C194.299 227.153 197.221 234.771 197.221 234.771L188.455 236.2Z" fill="#FFB8B8"/>
<path d="M61.9566 222.39L96.1898 188.108L94.5218 160.492H84.9197L81.9958 174.776L54.4423 216.2L61.9566 222.39Z" fill="#FFB8B8"/>
<path d="M106.211 115.26C106.211 115.26 118.61 121.188 127.856 113.939C127.856 113.939 150.463 118.118 151.716 119.545C152.968 120.973 150.463 163.825 150.463 163.825L145.454 188.109C145.454 188.109 152.552 225.247 142.114 234.77L144.202 247.626C144.202 247.626 97.862 251.435 79.4928 238.579L82.8319 225.723L91.599 185.251L86.1717 129.068C86.1717 129.068 90.3451 116.212 106.211 115.26Z" fill="#E4E4E4"/>
<path d="M141.07 121.687L151.925 119.784C151.925 119.784 157.352 120.736 162.362 132.64C167.372 144.544 172.799 160.256 172.799 160.256L154.013 169.779L138.566 142.163L141.07 121.687Z" fill="#E4E4E4"/>
<path d="M88.6774 126.687L86.1725 129.068C86.1725 129.068 82.8326 142.876 82.8326 152.398V165.254L97.862 167.159L88.6774 126.687Z" fill="#E4E4E4"/>
<path d="M108.512 94.4377C108.512 94.4377 106.469 91.9215 106.675 88.7717C106.812 86.9799 106.711 85.175 106.377 83.4172C106.377 83.4172 107.017 78.262 107.961 75.2734C108.905 72.2849 108.109 71.2452 112.168 69.6138C116.226 67.9823 113.643 62.0829 125.608 66.7856C126.063 67.3097 126.644 67.6683 127.278 67.8161C127.911 67.964 128.569 67.8945 129.168 67.6163C131.377 66.6936 132.709 70.1549 132.709 70.1549C132.709 70.1549 134.086 68.8653 134.86 70.206C135.633 71.5466 139.372 68.4914 140.744 78.2434C142.116 87.9954 137.408 96.6922 137.408 96.6922C137.408 96.6922 136.748 81.0867 128.977 80.8035C121.206 80.5203 112.418 77.1636 111.328 83.7351C110.238 90.3065 108.512 94.4377 108.512 94.4377Z" fill="#2F2E41"/>
<path d="M56.4804 229.683C60.0575 229.683 62.9574 226.375 62.9574 222.296C62.9574 218.216 60.0575 214.909 56.4804 214.909C52.9034 214.909 50.0035 218.216 50.0035 222.296C50.0035 226.375 52.9034 229.683 56.4804 229.683Z" fill="#FFB8B8"/>
<path d="M9.78752 272.188L116.459 247.903L107.544 196.971L0.873077 221.254L9.78752 272.188Z" fill="white"/>
<path d="M117.332 248.568L9.20535 273.185L0 220.59L108.127 195.974L117.332 248.568ZM10.3704 271.193L115.587 247.239L106.962 197.965L1.74617 221.92L10.3704 271.193Z" fill="#E4E4E4"/>
<path d="M44.5679 255.999L44.5242 256.02C44.1763 256.183 43.8238 256.338 43.4616 256.473C43.3399 256.52 43.2137 256.564 43.0914 256.606C42.9691 256.648 42.8427 256.693 42.7161 256.732C42.51 256.8 42.2991 256.859 42.087 256.915C41.9962 256.941 41.9007 256.965 41.8091 256.987L41.7541 257C41.6404 257.028 41.5267 257.055 41.4123 257.079L41.1165 257.138C41.0614 257.151 41.0071 257.16 40.9535 257.168C38.6011 257.589 36.1956 257.397 33.9179 256.605C31.6403 255.812 29.5497 254.442 27.8035 252.595C26.0573 250.749 24.7008 248.475 23.8361 245.945C22.9714 243.415 22.621 240.694 22.8112 237.986C23.0015 235.279 23.7274 232.657 24.9344 230.316C26.1414 227.975 27.798 225.976 29.7798 224.471C31.7616 222.965 34.0168 221.992 36.376 221.623C38.7352 221.255 41.1369 221.502 43.4005 222.345C41.3519 224.455 39.8256 227.143 38.9748 230.138C38.124 233.134 37.9784 236.331 38.5527 239.411C39.127 242.491 40.401 245.344 42.247 247.686C44.093 250.027 46.4461 251.774 49.0706 252.751C47.7435 254.119 46.221 255.218 44.5689 256L44.5679 255.999Z" fill="#26C88D"/>
<path d="M67.0863 246.862C67.7747 247.256 68.4881 247.59 69.2204 247.862C67.1703 249.981 64.6649 251.442 61.9589 252.098L61.7609 252.146C59.3985 252.687 56.9589 252.603 54.6296 251.899C52.3004 251.196 50.1437 249.893 48.3254 248.09C46.5072 246.286 45.0759 244.031 44.1417 241.498C43.2075 238.965 42.7953 236.222 42.9368 233.478C43.0783 230.735 43.7698 228.065 44.9579 225.675C46.1461 223.284 47.7994 221.236 49.7904 219.688C51.7815 218.141 54.0574 217.135 56.4429 216.748C58.8283 216.361 61.2599 216.603 63.5504 217.456C61.6407 219.413 60.1804 221.874 59.2971 224.624C58.4138 227.373 58.1344 230.327 58.4832 233.228C58.832 236.129 59.7985 238.889 61.2982 241.266C62.7979 243.642 64.7852 245.564 67.0863 246.863L67.0863 246.862Z" fill="#26C88D"/>
<path d="M94.2342 225.906C94.8823 229.381 94.6122 232.997 93.4582 236.297C92.3042 239.597 90.318 242.433 87.7508 244.446C85.1837 246.459 82.1509 247.558 79.0359 247.605C75.9209 247.652 72.8637 246.644 70.2508 244.71C67.6379 242.775 65.5868 240 64.3567 236.736C63.1267 233.471 62.7729 229.864 63.3403 226.371C63.9076 222.877 65.3706 219.654 67.5441 217.109C69.7176 214.564 72.5041 212.811 75.5512 212.071C77.5744 211.581 79.6626 211.549 81.6964 211.979C83.7303 212.409 85.67 213.291 87.4049 214.575C89.1398 215.86 90.6358 217.522 91.8076 219.466C92.9794 221.41 93.8039 223.598 94.2342 225.906Z" fill="#26C88D"/>
<path d="M87.6383 241.936C87.7872 242.731 87.865 243.541 87.8706 244.354C86.1362 245.739 84.1752 246.711 82.1045 247.214C80.0337 247.716 77.8955 247.738 75.8171 247.278C75.5322 246.533 75.3141 245.756 75.1664 244.961C74.3956 240.828 75.5902 236.887 77.9137 235.104C76.808 234.863 75.8094 234.193 75.0874 233.208C74.3654 232.223 73.9644 230.984 73.9526 229.7C73.9408 228.417 74.3189 227.168 75.0226 226.166C75.7263 225.164 76.7124 224.47 77.8134 224.203C78.9144 223.936 80.0625 224.112 81.0629 224.701C82.0632 225.289 82.8541 226.254 83.3014 227.433C83.7487 228.611 83.8247 229.929 83.5166 231.164C83.2085 232.399 82.5353 233.474 81.6112 234.207C84.3708 234.757 86.8675 237.802 87.6383 241.936Z" fill="white"/>
<path d="M67.0865 246.864L67.0967 246.918C67.2291 247.917 67.2892 248.926 67.2761 249.936C65.6445 251.241 63.8208 251.618 61.7612 252.148L61.5632 252.196C59.4927 252.701 57.354 252.723 55.2759 252.261C55.2477 252.192 55.2231 252.122 55.2024 252.051C54.9513 251.371 54.7581 250.665 54.6254 249.943C53.8547 245.81 55.0493 241.869 57.3728 240.086C56.267 239.846 55.2683 239.176 54.5461 238.191C53.824 237.207 53.423 235.967 53.4112 234.683C53.3994 233.399 53.7775 232.151 54.4814 231.149C55.1852 230.147 56.1714 229.454 57.2725 229.187C57.6456 229.095 58.0271 229.056 58.4086 229.069C58.1037 232.689 58.7704 236.329 60.3202 239.507C61.87 242.685 64.2298 245.25 67.087 246.864L67.0865 246.864Z" fill="white"/>
<path d="M47.3264 251.967C47.4514 252.683 47.5166 253.411 47.521 254.141C46.2744 255.139 44.9072 255.924 43.4622 256.472C43.3404 256.519 43.2143 256.563 43.092 256.605C42.9697 256.647 42.8433 256.692 42.7167 256.731C42.5107 256.799 42.2997 256.859 42.0877 256.914C42.0443 256.929 41.9969 256.941 41.9527 256.952L41.7547 257C41.6411 257.027 41.5274 257.055 41.413 257.078L41.1171 257.137C41.0621 257.15 41.0078 257.159 40.9541 257.168C39.1342 257.503 37.2767 257.468 35.4675 257.064C35.4627 257.056 35.4596 257.046 35.4584 257.036C35.4332 256.977 35.4117 256.917 35.394 256.855C35.1429 256.175 34.9497 255.469 34.817 254.747C34.0463 250.614 35.2409 246.673 37.5644 244.89C36.4586 244.649 35.4599 243.98 34.7377 242.995C34.0156 242.01 33.6146 240.771 33.6028 239.487C33.591 238.203 33.9691 236.954 34.673 235.953C35.3768 234.951 36.363 234.258 37.4641 233.991C37.7283 233.926 37.9969 233.887 38.2668 233.875C37.9385 237.59 38.6348 241.331 40.2589 244.574C41.8829 247.817 44.3536 250.401 47.3266 251.966L47.3264 251.967Z" fill="white"/>
<path d="M209.615 159.839C209.615 160.246 209.579 160.651 209.508 161.05C208.533 161.521 207.485 161.764 206.426 161.764C205.368 161.764 204.32 161.521 203.345 161.05C203.274 160.651 203.238 160.246 203.238 159.839C203.238 157.726 204.182 155.94 205.481 155.343C204.962 155.094 204.535 154.648 204.272 154.081C204.008 153.514 203.925 152.86 204.036 152.23C204.148 151.601 204.447 151.035 204.882 150.629C205.318 150.222 205.863 150 206.426 150C206.989 150 207.535 150.222 207.97 150.629C208.406 151.035 208.705 151.601 208.816 152.23C208.927 152.86 208.844 153.514 208.581 154.081C208.318 154.648 207.89 155.094 207.371 155.343C208.671 155.94 209.615 157.726 209.615 159.839Z" fill="#26C88D"/>
<path d="M209.615 196.557C209.615 196.964 209.579 197.37 209.508 197.768C208.533 198.239 207.485 198.482 206.426 198.482C205.368 198.482 204.32 198.239 203.345 197.768C203.274 197.37 203.238 196.964 203.238 196.557C203.238 194.444 204.182 192.658 205.481 192.061C204.962 191.813 204.535 191.367 204.272 190.799C204.008 190.232 203.925 189.578 204.036 188.949C204.148 188.319 204.447 187.753 204.882 187.347C205.318 186.94 205.863 186.718 206.426 186.718C206.989 186.718 207.535 186.94 207.97 187.347C208.406 187.753 208.705 188.319 208.816 188.949C208.927 189.578 208.844 190.232 208.581 190.799C208.318 191.367 207.89 191.813 207.371 192.061C208.671 192.658 209.615 194.444 209.615 196.557Z" fill="#26C88D"/>
<path d="M209.615 232.545C209.615 232.952 209.579 233.358 209.508 233.756C208.533 234.227 207.485 234.47 206.426 234.47C205.368 234.47 204.32 234.227 203.345 233.756C203.274 233.358 203.238 232.952 203.238 232.545C203.238 230.432 204.182 228.646 205.481 228.049C204.962 227.801 204.535 227.355 204.272 226.787C204.008 226.22 203.925 225.566 204.036 224.937C204.148 224.307 204.447 223.741 204.882 223.335C205.318 222.928 205.863 222.706 206.426 222.706C206.989 222.706 207.535 222.928 207.97 223.335C208.406 223.741 208.705 224.307 208.816 224.937C208.927 225.566 208.844 226.22 208.581 226.787C208.318 227.355 207.89 227.801 207.371 228.049C208.671 228.646 209.615 230.432 209.615 232.545Z" fill="#26C88D"/>
<path d="M193.236 244.879C196.506 244.879 199.157 241.855 199.157 238.125C199.157 234.395 196.506 231.371 193.236 231.371C189.965 231.371 187.314 234.395 187.314 238.125C187.314 241.855 189.965 244.879 193.236 244.879Z" fill="#FFB8B8"/>
</g>
<defs>
<clipPath id="clip0_1_142">
<rect width="300" height="300" fill="white"/>
</clipPath>
</defs>
</svg>
