<svg width="20" height="20" viewBox="0 0 20 20" fill="none" xmlns="http://www.w3.org/2000/svg">
<path fill-rule="evenodd" clip-rule="evenodd" d="M17.7778 7.98222C17.7778 3.48889 14.2889 0 10 0C5.71112 0 2.22223 3.48889 2.22223 7.77778C0.930006 8.44111 6.19888e-06 9.66222 6.19888e-06 11.1111V13.3333C6.19888e-06 14.2174 0.351196 15.0652 0.976317 15.6904C1.60144 16.3155 2.44928 16.6667 3.33334 16.6667H4.44445C4.73914 16.6667 5.02175 16.5496 5.23012 16.3412C5.4385 16.1329 5.55556 15.8502 5.55556 15.5556V8.88889C5.55556 8.5942 5.4385 8.31159 5.23012 8.10321C5.02175 7.89484 4.73914 7.77778 4.44445 7.77778C4.44445 6.30435 5.02977 4.89128 6.07164 3.84941C7.1135 2.80754 8.52658 2.22222 10 2.22222C11.4734 2.22222 12.8865 2.80754 13.9284 3.84941C14.9702 4.89128 15.5556 6.30435 15.5556 7.77778C15.2609 7.77778 14.9783 7.89484 14.7699 8.10321C14.5615 8.31159 14.4445 8.5942 14.4445 8.88889V15.5556C14.4445 15.8502 14.5615 16.1329 14.7699 16.3412C14.9783 16.5496 15.2609 16.6667 15.5556 16.6667V17.7778H12.6756C12.4467 17.1322 11.8356 16.6667 11.1111 16.6667H8.8889C8.44687 16.6667 8.02294 16.8423 7.71038 17.1548C7.39782 17.4674 7.22223 17.8913 7.22223 18.3333C7.22223 18.7754 7.39782 19.1993 7.71038 19.5118C8.02294 19.8244 8.44687 20 8.8889 20H15.5556C16.1449 20 16.7102 19.7659 17.1269 19.3491C17.5437 18.9324 17.7778 18.3671 17.7778 17.7778V16.4633C18.4264 16.2354 18.9883 15.812 19.3863 15.2515C19.7843 14.6909 19.9987 14.0208 20 13.3333V11.1111C19.9988 10.4238 19.7844 9.75373 19.3864 9.19334C18.9884 8.63295 18.4264 8.2098 17.7778 7.98222L-7.77777 68.8889L17.7778 7.98222Z" fill="white"/>
</svg>
