<svg width="23" height="20" viewBox="0 0 23 20" fill="none" xmlns="http://www.w3.org/2000/svg">
<path d="M19.5 12V15H22.5V17H19.5V20H17.5V17H14.5V15H17.5V12H19.5ZM19.508 0C20.056 0 20.5 0.445 20.5 0.993V10.342C19.8576 10.1151 19.1813 9.99944 18.5 10V2H2.5L2.501 16L11.793 6.707C11.965 6.53448 12.194 6.43073 12.4371 6.41526C12.6802 6.39979 12.9206 6.47367 13.113 6.623L13.206 6.708L16.752 10.258C15.9766 10.4943 15.2572 10.8851 14.6369 11.407C14.0167 11.9288 13.5086 12.5709 13.1432 13.2944C12.7779 14.0179 12.5628 14.808 12.5111 15.6169C12.4593 16.4258 12.5719 17.2368 12.842 18.001L1.492 18C1.22881 17.9997 0.976497 17.895 0.790489 17.7088C0.604482 17.5226 0.5 17.2702 0.5 17.007V0.993C0.50183 0.730378 0.6069 0.479017 0.792513 0.293218C0.978126 0.107418 1.22938 0.00209465 1.492 0H19.508ZM6.5 4C7.03043 4 7.53914 4.21071 7.91421 4.58579C8.28929 4.96086 8.5 5.46957 8.5 6C8.5 6.53043 8.28929 7.03914 7.91421 7.41421C7.53914 7.78929 7.03043 8 6.5 8C5.96957 8 5.46086 7.78929 5.08579 7.41421C4.71071 7.03914 4.5 6.53043 4.5 6C4.5 5.46957 4.71071 4.96086 5.08579 4.58579C5.46086 4.21071 5.96957 4 6.5 4Z" fill="#199CD9"/>
</svg>
