<svg width="20" height="20" viewBox="0 0 20 20" fill="none" xmlns="http://www.w3.org/2000/svg">
<path d="M3.33341 18.3332H15.0001V14.0243C15.2607 14.1163 15.5412 14.1665 15.8334 14.1665C17.2142 14.1665 18.3334 13.0473 18.3334 11.6665C18.3334 10.2858 17.2142 9.1665 15.8334 9.1665C15.5412 9.1665 15.2607 9.21667 15.0001 9.30875V4.99984H9.85783C9.94991 4.73919 10.0001 4.4587 10.0001 4.1665C10.0001 2.7858 8.88083 1.6665 7.50008 1.6665C6.11937 1.6665 5.00008 2.7858 5.00008 4.1665C5.00008 4.4587 5.05021 4.73919 5.14234 4.99984H3.33341C2.41294 4.99984 1.66675 5.74603 1.66675 6.6665V16.6665C1.66675 17.587 2.41294 18.3332 3.33341 18.3332Z" stroke="black" stroke-width="1.5" stroke-linecap="round" stroke-linejoin="round"/>
</svg>
