<svg width="371" height="720" viewBox="0 0 371 720" fill="none" xmlns="http://www.w3.org/2000/svg">
<path d="M1 709.981C10.8214 710.645 26.4167 717.592 48.1429 713.167C69.869 708.742 81.4762 686.308 105.286 688.742C129.095 691.176 138.619 723.963 162.429 724.848C186.238 725.733 195.762 692.326 219.571 692.99C243.381 693.654 252.905 728.698 276.714 728.034C300.524 727.37 310.048 688.919 333.857 689.804C357.667 690.689 367.19 731.839 391 732.282C414.81 732.724 424.333 691.707 448.143 691.928C471.952 692.149 481.476 730.247 505.286 733.344C529.095 736.441 538.619 705.247 562.429 706.795C586.238 708.344 595.762 739.671 619.571 740.777C643.381 741.884 652.905 712.105 676.714 712.105C700.524 712.105 710.048 739.671 733.857 740.777C757.667 741.884 779.095 722.282 791 717.415" stroke="#F1FAFF" stroke-width="2" stroke-linecap="round"/>
<path d="M1 665.379C10.8214 666.043 26.4167 672.99 48.1429 668.565C69.869 664.14 81.4762 641.707 105.286 644.14C129.095 646.574 138.619 679.362 162.429 680.246C186.238 681.131 195.762 647.724 219.571 648.388C243.381 649.052 252.905 684.096 276.714 683.432C300.524 682.769 310.048 644.317 333.857 645.202C357.667 646.087 367.19 687.238 391 687.68C414.81 688.123 424.333 647.105 448.143 647.326C471.952 647.547 481.476 685.645 505.286 688.742C529.095 691.839 538.619 660.645 562.429 662.193C586.238 663.742 595.762 695.069 619.571 696.176C643.381 697.282 652.905 667.503 676.714 667.503C700.524 667.503 710.048 695.069 733.857 696.176C757.667 697.282 779.095 677.68 791 672.813" stroke="#F1FAFF" stroke-width="2" stroke-linecap="round"/>
<path d="M1 620.777C10.8214 621.441 26.4167 628.388 48.1429 623.963C69.869 619.538 81.4762 597.105 105.286 599.538C129.095 601.972 138.619 634.76 162.429 635.645C186.238 636.53 195.762 603.123 219.571 603.786C243.381 604.45 252.905 639.494 276.714 638.831C300.524 638.167 310.048 599.715 333.857 600.6C357.667 601.485 367.19 642.636 391 643.078C414.81 643.521 424.333 602.503 448.143 602.724C471.952 602.946 481.476 641.043 505.286 644.14C529.095 647.238 538.619 616.043 562.429 617.592C586.238 619.14 595.762 650.468 619.571 651.574C643.381 652.68 652.905 622.901 676.714 622.901C700.524 622.901 710.048 650.468 733.857 651.574C757.667 652.68 779.095 633.078 791 628.211" stroke="#F1FAFF" stroke-width="2" stroke-linecap="round"/>
<path d="M1 576.176C10.8214 576.839 26.4167 583.786 48.1429 579.361C69.869 574.937 81.4762 552.503 105.286 554.937C129.095 557.37 138.619 590.158 162.429 591.043C186.238 591.928 195.762 558.521 219.571 559.184C243.381 559.848 252.905 594.892 276.714 594.229C300.524 593.565 310.048 555.114 333.857 555.999C357.667 556.884 367.19 598.034 391 598.477C414.81 598.919 424.333 557.901 448.143 558.123C471.952 558.344 481.476 596.441 505.286 599.538C529.095 602.636 538.619 571.441 562.429 572.99C586.238 574.538 595.762 605.866 619.571 606.972C643.381 608.078 652.905 578.3 676.714 578.3C700.524 578.3 710.048 605.866 733.857 606.972C757.667 608.078 779.095 588.477 791 583.609" stroke="#F1FAFF" stroke-width="2" stroke-linecap="round"/>
<path d="M1 531.574C10.8214 532.238 26.4167 539.185 48.1429 534.76C69.869 530.335 81.4762 507.901 105.286 510.335C129.095 512.769 138.619 545.556 162.429 546.441C186.238 547.326 195.762 513.919 219.571 514.583C243.381 515.247 252.905 550.291 276.714 549.627C300.524 548.963 310.048 510.512 333.857 511.397C357.667 512.282 367.19 553.432 391 553.875C414.81 554.317 424.333 513.3 448.143 513.521C471.952 513.742 481.476 551.84 505.286 554.937C529.095 558.034 538.619 526.84 562.429 528.388C586.238 529.937 595.762 561.264 619.571 562.371C643.381 563.477 652.905 533.698 676.714 533.698C700.524 533.698 710.048 561.264 733.857 562.371C757.667 563.477 779.095 543.875 791 539.008" stroke="#F1FAFF" stroke-width="2" stroke-linecap="round"/>
<path d="M1 486.972C10.8214 487.636 26.4167 494.583 48.1429 490.158C69.869 485.733 81.4762 463.3 105.286 465.733C129.095 468.167 138.619 500.955 162.429 501.84C186.238 502.724 195.762 469.317 219.571 469.981C243.381 470.645 252.905 505.689 276.714 505.025C300.524 504.362 310.048 465.91 333.857 466.795C357.667 467.68 367.19 508.831 391 509.273C414.81 509.716 424.333 468.698 448.143 468.919C471.952 469.14 481.476 507.238 505.286 510.335C529.095 513.432 538.619 482.238 562.429 483.786C586.238 485.335 595.762 516.663 619.571 517.769C643.381 518.875 652.905 489.096 676.714 489.096C700.524 489.096 710.048 516.663 733.857 517.769C757.667 518.875 779.095 499.273 791 494.406" stroke="#F1FAFF" stroke-width="2" stroke-linecap="round"/>
<path d="M1 442.37C10.8214 443.034 26.4167 449.981 48.1429 445.556C69.869 441.132 81.4762 418.698 105.286 421.132C129.095 423.565 138.619 456.353 162.429 457.238C186.238 458.123 195.762 424.716 219.571 425.379C243.381 426.043 252.905 461.087 276.714 460.424C300.524 459.76 310.048 421.308 333.857 422.193C357.667 423.078 367.19 464.229 391 464.671C414.81 465.114 424.333 424.096 448.143 424.317C471.952 424.539 481.476 462.636 505.286 465.733C529.095 468.831 538.619 437.636 562.429 439.185C586.238 440.733 595.762 472.061 619.571 473.167C643.381 474.273 652.905 444.494 676.714 444.494C700.524 444.494 710.048 472.061 733.857 473.167C757.667 474.273 779.095 454.671 791 449.804" stroke="#F1FAFF" stroke-width="2" stroke-linecap="round"/>
<path d="M1 397.769C10.8214 398.432 26.4167 405.379 48.1429 400.954C69.869 396.53 81.4762 374.096 105.286 376.53C129.095 378.963 138.619 411.751 162.429 412.636C186.238 413.521 195.762 380.114 219.571 380.777C243.381 381.441 252.905 416.485 276.714 415.822C300.524 415.158 310.048 376.707 333.857 377.592C357.667 378.477 367.19 419.627 391 420.07C414.81 420.512 424.333 379.494 448.143 379.716C471.952 379.937 481.476 418.034 505.286 421.131C529.095 424.229 538.619 393.034 562.429 394.583C586.238 396.131 595.762 427.459 619.571 428.565C643.381 429.671 652.905 399.893 676.714 399.893C700.524 399.893 710.048 427.459 733.857 428.565C757.667 429.671 779.095 410.07 791 405.202" stroke="#F1FAFF" stroke-width="2" stroke-linecap="round"/>
<path d="M1 353.167C10.8214 353.831 26.4167 360.777 48.1429 356.353C69.869 351.928 81.4762 329.494 105.286 331.928C129.095 334.362 138.619 367.149 162.429 368.034C186.238 368.919 195.762 335.512 219.571 336.176C243.381 336.839 252.905 371.884 276.714 371.22C300.524 370.556 310.048 332.105 333.857 332.99C357.667 333.875 367.19 375.025 391 375.468C414.81 375.91 424.333 334.892 448.143 335.114C471.952 335.335 481.476 373.432 505.286 376.53C529.095 379.627 538.619 348.432 562.429 349.981C586.238 351.53 595.762 382.857 619.571 383.963C643.381 385.069 652.905 355.291 676.714 355.291C700.524 355.291 710.048 382.857 733.857 383.963C757.667 385.069 779.095 365.468 791 360.6" stroke="#F1FAFF" stroke-width="2" stroke-linecap="round"/>
<path d="M1 308.565C10.8214 309.229 26.4167 316.176 48.1429 311.751C69.869 307.326 81.4762 284.892 105.286 287.326C129.095 289.76 138.619 322.547 162.429 323.432C186.238 324.317 195.762 290.91 219.571 291.574C243.381 292.238 252.905 327.282 276.714 326.618C300.524 325.954 310.048 287.503 333.857 288.388C357.667 289.273 367.19 330.423 391 330.866C414.81 331.308 424.333 290.291 448.143 290.512C471.952 290.733 481.476 328.831 505.286 331.928C529.095 335.025 538.619 303.831 562.429 305.379C586.238 306.928 595.762 338.255 619.571 339.361C643.381 340.468 652.905 310.689 676.714 310.689C700.524 310.689 710.048 338.255 733.857 339.361C757.667 340.468 779.095 320.866 791 315.999" stroke="#F1FAFF" stroke-width="2" stroke-linecap="round"/>
<path d="M1 263.963C10.8214 264.627 26.4167 271.574 48.1429 267.149C69.869 262.725 81.4762 240.291 105.286 242.725C129.095 245.158 138.619 277.946 162.429 278.831C186.238 279.716 195.762 246.309 219.571 246.972C243.381 247.636 252.905 282.68 276.714 282.017C300.524 281.353 310.048 242.902 333.857 243.786C357.667 244.671 367.19 285.822 391 286.264C414.81 286.707 424.333 245.689 448.143 245.91C471.952 246.132 481.476 284.229 505.286 287.326C529.095 290.424 538.619 259.229 562.429 260.778C586.238 262.326 595.762 293.654 619.571 294.76C643.381 295.866 652.905 266.087 676.714 266.087C700.524 266.087 710.048 293.654 733.857 294.76C757.667 295.866 779.095 276.264 791 271.397" stroke="#F1FAFF" stroke-width="2" stroke-linecap="round"/>
<path d="M1 219.361C10.8214 220.025 26.4167 226.972 48.1429 222.547C69.869 218.122 81.4762 195.689 105.286 198.122C129.095 200.556 138.619 233.344 162.429 234.229C186.238 235.114 195.762 201.707 219.571 202.37C243.381 203.034 252.905 238.078 276.714 237.415C300.524 236.751 310.048 198.299 333.857 199.184C357.667 200.069 367.19 241.22 391 241.662C414.81 242.105 424.333 201.087 448.143 201.308C471.952 201.53 481.476 239.627 505.286 242.724C529.095 245.822 538.619 214.627 562.429 216.176C586.238 217.724 595.762 249.052 619.571 250.158C643.381 251.264 652.905 221.485 676.714 221.485C700.524 221.485 710.048 249.052 733.857 250.158C757.667 251.264 779.095 231.662 791 226.795" stroke="#F1FAFF" stroke-width="2" stroke-linecap="round"/>
<path d="M1 174.76C10.8214 175.424 26.4167 182.37 48.1429 177.946C69.869 173.521 81.4762 151.087 105.286 153.521C129.095 155.955 138.619 188.742 162.429 189.627C186.238 190.512 195.762 157.105 219.571 157.769C243.381 158.432 252.905 193.477 276.714 192.813C300.524 192.149 310.048 153.698 333.857 154.583C357.667 155.468 367.19 196.618 391 197.061C414.81 197.503 424.333 156.486 448.143 156.707C471.952 156.928 481.476 195.025 505.286 198.123C529.095 201.22 538.619 170.025 562.429 171.574C586.238 173.123 595.762 204.45 619.571 205.556C643.381 206.663 652.905 176.884 676.714 176.884C700.524 176.884 710.048 204.45 733.857 205.556C757.667 206.663 779.095 187.061 791 182.193" stroke="#F1FAFF" stroke-width="2" stroke-linecap="round"/>
<path d="M1 130.158C10.8214 130.822 26.4167 137.769 48.1429 133.344C69.869 128.919 81.4762 106.485 105.286 108.919C129.095 111.353 138.619 144.14 162.429 145.025C186.238 145.91 195.762 112.503 219.571 113.167C243.381 113.831 252.905 148.875 276.714 148.211C300.524 147.547 310.048 109.096 333.857 109.981C357.667 110.866 367.19 152.016 391 152.459C414.81 152.901 424.333 111.884 448.143 112.105C471.952 112.326 481.476 150.424 505.286 153.521C529.095 156.618 538.619 125.424 562.429 126.972C586.238 128.521 595.762 159.848 619.571 160.955C643.381 162.061 652.905 132.282 676.714 132.282C700.524 132.282 710.048 159.848 733.857 160.955C757.667 162.061 779.095 142.459 791 137.592" stroke="#F1FAFF" stroke-width="2" stroke-linecap="round"/>
<path d="M1 85.5562C10.8214 86.22 26.4167 93.1669 48.1429 88.7421C69.869 84.3173 81.4762 61.8837 105.286 64.3173C129.095 66.7509 138.619 99.5385 162.429 100.423C186.238 101.308 195.762 67.9014 219.571 68.5651C243.381 69.2288 252.905 104.273 276.714 103.609C300.524 102.946 310.048 64.4943 333.857 65.3792C357.667 66.2642 367.19 107.415 391 107.857C414.81 108.3 424.333 67.2819 448.143 67.5031C471.952 67.7244 481.476 105.822 505.286 108.919C529.095 112.016 538.619 80.8217 562.429 82.3704C586.238 83.9191 595.762 115.246 619.571 116.353C643.381 117.459 652.905 87.6801 676.714 87.6801C700.524 87.6801 710.048 115.246 733.857 116.353C757.667 117.459 779.095 97.8571 791 92.9899" stroke="#F1FAFF" stroke-width="2" stroke-linecap="round"/>
<path d="M1 40.9544C10.8214 41.6181 26.4167 48.565 48.1429 44.1403C69.869 39.7155 81.4762 17.2819 105.286 19.7155C129.095 22.1491 138.619 54.9367 162.429 55.8217C186.238 56.7066 195.762 23.2996 219.571 23.9633C243.381 24.627 252.905 59.6712 276.714 59.0075C300.524 58.3438 310.048 19.8925 333.857 20.7774C357.667 21.6624 367.19 62.8128 391 63.2553C414.81 63.6978 424.333 22.6801 448.143 22.9013C471.952 23.1226 481.476 61.2199 505.286 64.3173C529.095 67.4146 538.619 36.2199 562.429 37.7686C586.238 39.3173 595.762 70.6447 619.571 71.7509C643.381 72.8571 652.905 43.0783 676.714 43.0783C700.524 43.0783 710.048 70.6447 733.857 71.7509C757.667 72.8571 779.095 53.2553 791 48.3881" stroke="#F1FAFF" stroke-width="2" stroke-linecap="round"/>
<path d="M1 -3.64726C10.8214 -2.98354 26.4167 3.96336 48.1429 -0.461416C69.869 -4.88619 81.4762 -27.3198 105.286 -24.8862C129.095 -22.4526 138.619 10.335 162.429 11.22C186.238 12.105 195.762 -21.3021 219.571 -20.6384C243.381 -19.9747 252.905 15.0696 276.714 14.4058C300.524 13.7421 310.048 -24.7092 333.857 -23.8242C357.667 -22.9393 367.19 18.2112 391 18.6536C414.81 19.0961 424.333 -21.9216 448.143 -21.7004C471.952 -21.4791 481.476 16.6182 505.286 19.7156C529.095 22.8129 538.619 -8.38177 562.429 -6.8331C586.238 -5.28442 595.762 26.043 619.571 27.1492C643.381 28.2554 652.905 -1.52336 676.714 -1.52336C700.524 -1.52336 710.048 26.043 733.857 27.1492C757.667 28.2554 779.095 8.65363 791 3.78637" stroke="#F1FAFF" stroke-width="2" stroke-linecap="round"/>
</svg>
