<svg width="14" height="15" viewBox="0 0 14 15" fill="none" xmlns="http://www.w3.org/2000/svg">
<path d="M6.99998 14.1667C3.31798 14.1667 0.333313 11.182 0.333313 7.50004C0.333313 3.81804 3.31798 0.833374 6.99998 0.833374C10.682 0.833374 13.6666 3.81804 13.6666 7.50004C13.6666 11.182 10.682 14.1667 6.99998 14.1667ZM6.99998 12.8334C8.41447 12.8334 9.77102 12.2715 10.7712 11.2713C11.7714 10.2711 12.3333 8.91453 12.3333 7.50004C12.3333 6.08555 11.7714 4.729 10.7712 3.7288C9.77102 2.72861 8.41447 2.16671 6.99998 2.16671C5.58549 2.16671 4.22894 2.72861 3.22874 3.7288C2.22855 4.729 1.66665 6.08555 1.66665 7.50004C1.66665 8.91453 2.22855 10.2711 3.22874 11.2713C4.22894 12.2715 5.58549 12.8334 6.99998 12.8334ZM10.2606 5.18204L4.68198 10.7607C4.31756 10.501 3.99898 10.1825 3.73931 9.81804L9.31798 4.23937C9.6824 4.49904 10.001 4.81762 10.2606 5.18204Z" fill="#DD5147"/>
</svg>
