<svg width="20" height="15" viewBox="0 0 20 15" fill="none" xmlns="http://www.w3.org/2000/svg">
<path d="M2.92901 0.800049L4.34301 2.21405C3.59904 2.95612 3.00906 3.83791 2.60697 4.80873C2.20488 5.77955 1.99861 6.82026 2.00001 7.87105C2.00001 10.081 2.89501 12.081 4.34301 13.528L2.93001 14.941C1.99998 14.0137 1.26237 12.9117 0.759543 11.6984C0.256719 10.4851 -0.00140339 9.18441 8.1015e-06 7.87105C-0.00166634 6.55759 0.256234 5.25674 0.758889 4.04326C1.26154 2.82979 1.99904 1.7276 2.92901 0.800049ZM17.071 0.800049C18.001 1.7276 18.7385 2.82979 19.2411 4.04326C19.7438 5.25674 20.0017 6.55759 20 7.87105C20.0017 9.18451 19.7438 10.4854 19.2411 11.6988C18.7385 12.9123 18.001 14.0145 17.071 14.942L15.657 13.528C16.401 12.786 16.991 11.9042 17.393 10.9334C17.7951 9.96255 18.0014 8.92184 18 7.87105C18 5.66105 17.105 3.66105 15.657 2.21405L17.07 0.801049L17.071 0.800049ZM5.75701 3.62805L7.17201 5.04305C6.79997 5.41397 6.50491 5.85476 6.30378 6.34008C6.10264 6.82541 5.99941 7.3457 6.00001 7.87105C6.00001 8.97605 6.44801 9.97605 7.17201 10.699L5.75701 12.114C5.19904 11.5574 4.75657 10.8961 4.45504 10.1679C4.15352 9.43974 3.99888 8.65917 4.00001 7.87105C4.00001 6.21405 4.67201 4.71405 5.75701 3.62805ZM14.243 3.62805C14.801 4.18465 15.2434 4.84604 15.545 5.57419C15.8465 6.30235 16.0011 7.08293 16 7.87105C16.0011 8.65917 15.8465 9.43974 15.545 10.1679C15.2434 10.8961 14.801 11.5574 14.243 12.114L12.828 10.699C13.2 10.3281 13.4951 9.88734 13.6962 9.40201C13.8974 8.91669 14.0006 8.3964 14 7.87105C14.0006 7.3457 13.8974 6.82541 13.6962 6.34008C13.4951 5.85476 13.2 5.41397 12.828 5.04305L14.243 3.62805ZM10 9.87105C9.46958 9.87105 8.96087 9.66033 8.58579 9.28526C8.21072 8.91019 8.00001 8.40148 8.00001 7.87105C8.00001 7.34062 8.21072 6.83191 8.58579 6.45684C8.96087 6.08176 9.46958 5.87105 10 5.87105C10.5304 5.87105 11.0391 6.08176 11.4142 6.45684C11.7893 6.83191 12 7.34062 12 7.87105C12 8.40148 11.7893 8.91019 11.4142 9.28526C11.0391 9.66033 10.5304 9.87105 10 9.87105Z" fill="#012040"/>
</svg>
