<svg width="42" height="43" viewBox="0 0 42 43" fill="none" xmlns="http://www.w3.org/2000/svg">
<circle cx="21" cy="21.2896" r="20" fill="#DAAB22"/>
<path fill-rule="evenodd" clip-rule="evenodd" d="M21.755 12.6884C21.755 12.7066 21.7183 12.9738 21.6734 13.2821C21.6285 13.5905 21.5918 13.8687 21.5918 13.9005C21.5918 13.9473 21.6397 13.9659 21.8448 13.9986C22.8467 14.1581 24.0484 14.6307 24.9197 15.2079C25.4558 15.563 25.7953 15.8379 26.2389 16.276C27.3889 17.4116 28.1443 18.7855 28.4941 20.3775C28.5557 20.6576 28.5747 20.7029 28.6286 20.6984C28.7905 20.6849 29.8039 20.5124 29.8241 20.495C29.8367 20.4842 29.8119 20.3129 29.7689 20.1145C29.1527 17.2669 27.2643 14.8488 24.6549 13.5659C23.8275 13.1591 22.9933 12.8786 22.2116 12.7443C22.0413 12.715 21.8689 12.683 21.8285 12.6731C21.7881 12.6633 21.755 12.6701 21.755 12.6884ZM15.6952 14.2934C15.3811 14.3586 15.2371 14.4704 14.3985 15.3005C13.952 15.7424 13.5372 16.1801 13.4767 16.2731C12.8906 17.1745 13.066 18.6687 13.9941 20.6796C15.033 22.9306 16.9019 25.2022 19.0457 26.8195C20.3081 27.7718 21.813 28.5921 23.0607 29.008C24.0917 29.3518 25.0613 29.449 25.6787 29.2705C26.1407 29.1369 26.2434 29.0591 27.1637 28.1438C27.9383 27.3734 28.0286 27.2721 28.1244 27.0669C28.2146 26.8738 28.2302 26.8037 28.2302 26.592C28.2302 26.3805 28.2145 26.3099 28.1247 26.1171C28.0272 25.9076 27.9306 25.8023 26.8375 24.7127C25.8744 23.7526 25.6226 23.5189 25.4762 23.449C25.2289 23.3309 24.9948 23.2911 24.7826 23.3311C24.4307 23.3974 24.2993 23.4952 23.4812 24.3002C23.0572 24.7174 22.6853 25.0587 22.6547 25.0587C22.5755 25.0587 21.8062 24.6625 21.5094 24.469C20.3563 23.7167 19.046 22.4415 18.2077 21.2557C17.9194 20.8479 17.7844 20.6216 17.5916 20.2233C17.4725 19.9769 17.4436 19.8868 17.4613 19.8159C17.4759 19.7574 17.7498 19.4577 18.231 18.9737C18.8988 18.3021 18.9888 18.1987 19.0788 18.0004C19.2499 17.6233 19.2135 17.2637 18.967 16.8941C18.9045 16.8004 18.3495 16.2219 17.7337 15.6085C16.7282 14.6071 16.5923 14.4833 16.4017 14.3955C16.1685 14.2881 15.9045 14.2499 15.6952 14.2934ZM21.5819 16.084C21.5367 16.3202 21.4176 17.2619 21.4312 17.2754C21.4398 17.2841 21.5639 17.3152 21.707 17.3447C23.3803 17.6895 24.717 18.9914 25.118 20.6669C25.1518 20.8081 25.1838 20.9272 25.1891 20.9314C25.2043 20.9437 26.4226 20.7311 26.4407 20.7131C26.4609 20.6929 26.4049 20.4163 26.3199 20.1165C25.7308 18.0394 23.9799 16.4455 21.848 16.0457L21.5982 15.9988L21.5819 16.084Z" fill="white"/>
</svg>
