<svg width="40" height="41" viewBox="0 0 40 41" fill="none" xmlns="http://www.w3.org/2000/svg">
<circle cx="20" cy="20.6189" r="20" fill="#F6F8FA"/>
<g clip-path="url(#clip0_12870_33115)">
<path d="M18.1892 28.7547L21.9251 22.2855L24.8684 27.383C23.4514 28.4058 21.7476 28.955 20.0001 28.9522C19.3784 28.9522 18.7726 28.8839 18.1892 28.7547ZM16.5751 28.2189C15.5044 27.7348 14.5479 27.0304 13.7679 26.1516C12.9879 25.2728 12.402 24.2394 12.0484 23.1189H19.5192L16.5751 28.218V28.2189ZM11.7084 21.4522C11.5891 20.2832 11.7194 19.1023 12.0904 17.9874C12.4615 16.8725 13.0649 15.849 13.8609 14.9847L17.5934 21.4522H11.7084ZM15.1326 13.8547C16.5493 12.8321 18.2528 12.2829 20.0001 12.2855C20.6217 12.2855 21.2276 12.3539 21.8109 12.483L18.0751 18.9522L15.1326 13.8547ZM23.4251 13.0189C24.4957 13.5029 25.4523 14.2074 26.2323 15.0861C27.0123 15.9649 27.5982 16.9983 27.9517 18.1189H20.4809L23.4251 13.0189ZM28.2917 19.7855C28.411 20.9545 28.2808 22.1354 27.9097 23.2503C27.5387 24.3652 26.9352 25.3887 26.1392 26.253L22.4067 19.7855H28.2934H28.2917Z" fill="#012040"/>
</g>
<defs>
<clipPath id="clip0_12870_33115">
<rect width="20" height="20" fill="white" transform="translate(10 10.6189)"/>
</clipPath>
</defs>
</svg>
