<svg width="9" height="11" viewBox="0 0 9 11" fill="none" xmlns="http://www.w3.org/2000/svg">
<path d="M7.30903 2.984L8.03553 2.2575L8.74253 2.9645L8.01603 3.691C8.73391 4.58958 9.08049 5.72894 8.98457 6.87507C8.88865 8.02119 8.35753 9.0871 7.50027 9.85386C6.64302 10.6206 5.52471 11.03 4.37502 10.998C3.22533 10.966 2.13153 10.495 1.31827 9.68176C0.504997 8.8685 0.0339939 7.7747 0.00198856 6.62501C-0.0300168 5.47532 0.379405 4.35701 1.14617 3.49976C1.91293 2.6425 2.97883 2.11138 4.12496 2.01546C5.27109 1.91954 6.41045 2.26612 7.30903 2.984V2.984ZM4.50003 10C4.95966 10 5.41478 9.90947 5.83942 9.73358C6.26406 9.55769 6.6499 9.29988 6.9749 8.97487C7.29991 8.64987 7.55772 8.26403 7.73361 7.83939C7.9095 7.41475 8.00003 6.95963 8.00003 6.5C8.00003 6.04037 7.9095 5.58525 7.73361 5.16061C7.55772 4.73597 7.29991 4.35013 6.9749 4.02513C6.6499 3.70012 6.26406 3.44231 5.83942 3.26642C5.41478 3.09053 4.95966 3 4.50003 3C3.57177 3 2.68153 3.36875 2.02516 4.02513C1.36878 4.6815 1.00003 5.57174 1.00003 6.5C1.00003 7.42826 1.36878 8.3185 2.02516 8.97487C2.68153 9.63125 3.57177 10 4.50003 10V10ZM4.00003 4H5.00003V7H4.00003V4ZM2.50003 0.5H6.50003V1.5H2.50003V0.5Z" fill="white"/>
</svg>
