<svg width="19" height="20" viewBox="0 0 19 20" fill="none" xmlns="http://www.w3.org/2000/svg">
<path d="M5.66667 3.33317H3.16667C2.24619 3.33317 1.5 4.07936 1.5 4.99984V7.49984M5.66667 3.33317H12.3333M5.66667 3.33317V1.6665M5.66667 3.33317V4.99984M1.5 7.49984H16.5V4.99984C16.5 4.07936 15.7538 3.33317 14.8333 3.33317H12.3333M1.5 7.49984V16.6665C1.5 17.587 2.24619 18.3332 3.16667 18.3332H7.33333M12.3333 3.33317V1.6665M12.3333 3.33317V4.99984M13.1667 12.7082V14.1665L14.2083 15.2082M17.3333 14.1665C17.3333 16.4677 15.4678 18.3332 13.1667 18.3332C10.8655 18.3332 9 16.4677 9 14.1665C9 11.8653 10.8655 9.99984 13.1667 9.99984C15.4678 9.99984 17.3333 11.8653 17.3333 14.1665Z" stroke="#5F5F5F" stroke-width="1.5" stroke-linecap="round" stroke-linejoin="round"/>
</svg>
