<svg width="18" height="18" viewBox="0 0 18 18" fill="none" xmlns="http://www.w3.org/2000/svg">
<path d="M13.1667 4.23568H17.3333V5.90234H15.6667V16.7357C15.6667 16.9567 15.5789 17.1687 15.4226 17.3249C15.2663 17.4812 15.0544 17.569 14.8333 17.569H3.16667C2.94566 17.569 2.7337 17.4812 2.57742 17.3249C2.42114 17.1687 2.33334 16.9567 2.33334 16.7357V5.90234H0.666672V4.23568H4.83334V1.73568C4.83334 1.51466 4.92114 1.3027 5.07742 1.14642C5.2337 0.990141 5.44566 0.902344 5.66667 0.902344H12.3333C12.5544 0.902344 12.7663 0.990141 12.9226 1.14642C13.0789 1.3027 13.1667 1.51466 13.1667 1.73568V4.23568ZM14 5.90234H4.00001V15.9023H14V5.90234ZM6.50001 8.40234H8.16667V13.4023H6.50001V8.40234ZM9.83334 8.40234H11.5V13.4023H9.83334V8.40234ZM6.50001 2.56901V4.23568H11.5V2.56901H6.50001Z" fill="#fff"/>
</svg>
