<svg width="14" height="14" viewBox="0 0 14 14" fill="none" xmlns="http://www.w3.org/2000/svg">
<path d="M10.3334 3.00016H13.6667V4.3335H12.3334V13.0002C12.3334 13.177 12.2631 13.3465 12.1381 13.4716C12.0131 13.5966 11.8435 13.6668 11.6667 13.6668H2.33337C2.15656 13.6668 1.98699 13.5966 1.86197 13.4716C1.73695 13.3465 1.66671 13.177 1.66671 13.0002V4.3335H0.333374V3.00016H3.66671V1.00016C3.66671 0.823352 3.73695 0.653782 3.86197 0.528758C3.98699 0.403734 4.15656 0.333496 4.33337 0.333496H9.66671C9.84352 0.333496 10.0131 0.403734 10.1381 0.528758C10.2631 0.653782 10.3334 0.823352 10.3334 1.00016V3.00016ZM11 4.3335H3.00004V12.3335H11V4.3335ZM5.00004 6.3335H6.33337V10.3335H5.00004V6.3335ZM7.66671 6.3335H9.00004V10.3335H7.66671V6.3335ZM5.00004 1.66683V3.00016H9.00004V1.66683H5.00004Z" fill="#DD5147"/>
</svg>
