<svg width="40" height="41" viewBox="0 0 40 41" fill="none" xmlns="http://www.w3.org/2000/svg">
<circle cx="20" cy="20.6189" r="20" fill="#F6F8FA"/>
<g clip-path="url(#clip0_12870_33127)">
<path d="M27.5 18.1189V28.113C27.5008 28.2225 27.48 28.331 27.4388 28.4324C27.3976 28.5338 27.3369 28.6261 27.2601 28.704C27.1832 28.7819 27.0918 28.8439 26.991 28.8865C26.8902 28.9291 26.7819 28.9514 26.6725 28.9522H13.3275C13.1082 28.9522 12.8978 28.8651 12.7427 28.7101C12.5875 28.5551 12.5002 28.3448 12.5 28.1255V13.1122C12.5 12.6647 12.8725 12.2855 13.3317 12.2855H21.6667V17.2855C21.6667 17.5065 21.7545 17.7185 21.9107 17.8748C22.067 18.0311 22.279 18.1189 22.5 18.1189H27.5ZM27.5 16.4522H23.3333V12.288L27.5 16.4522Z" fill="#012040"/>
</g>
<defs>
<clipPath id="clip0_12870_33127">
<rect width="20" height="20" fill="white" transform="translate(10 10.6189)"/>
</clipPath>
</defs>
</svg>
