<svg width="18" height="18" viewBox="0 0 18 18" fill="none" xmlns="http://www.w3.org/2000/svg">
<path d="M4.14163 14C4.31379 13.5121 4.63308 13.0896 5.05546 12.7907C5.47784 12.4918 5.98253 12.3313 6.49996 12.3313C7.01739 12.3313 7.52208 12.4918 7.94446 12.7907C8.36684 13.0896 8.68612 13.5121 8.85829 14H17.3333V15.6667H8.85829C8.68612 16.1547 8.36684 16.5772 7.94446 16.8761C7.52208 17.1749 7.01739 17.3354 6.49996 17.3354C5.98253 17.3354 5.47784 17.1749 5.05546 16.8761C4.63308 16.5772 4.31379 16.1547 4.14163 15.6667H0.666626V14H4.14163ZM9.14163 8.16672C9.31379 7.67877 9.63307 7.25624 10.0555 6.95737C10.4778 6.6585 10.9825 6.49801 11.5 6.49801C12.0174 6.49801 12.5221 6.6585 12.9445 6.95737C13.3668 7.25624 13.6861 7.67877 13.8583 8.16672H17.3333V9.83338H13.8583C13.6861 10.3213 13.3668 10.7439 12.9445 11.0427C12.5221 11.3416 12.0174 11.5021 11.5 11.5021C10.9825 11.5021 10.4778 11.3416 10.0555 11.0427C9.63307 10.7439 9.31379 10.3213 9.14163 9.83338H0.666626V8.16672H9.14163ZM4.14163 2.33338C4.31379 1.84544 4.63308 1.42291 5.05546 1.12404C5.47784 0.825169 5.98253 0.664673 6.49996 0.664673C7.01739 0.664673 7.52208 0.825169 7.94446 1.12404C8.36684 1.42291 8.68612 1.84544 8.85829 2.33338H17.3333V4.00005H8.85829C8.68612 4.48799 8.36684 4.91052 7.94446 5.20939C7.52208 5.50826 7.01739 5.66876 6.49996 5.66876C5.98253 5.66876 5.47784 5.50826 5.05546 5.20939C4.63308 4.91052 4.31379 4.48799 4.14163 4.00005H0.666626V2.33338H4.14163ZM6.49996 4.00005C6.72097 4.00005 6.93293 3.91225 7.08921 3.75597C7.24549 3.59969 7.33329 3.38773 7.33329 3.16671C7.33329 2.9457 7.24549 2.73374 7.08921 2.57746C6.93293 2.42118 6.72097 2.33338 6.49996 2.33338C6.27895 2.33338 6.06698 2.42118 5.9107 2.57746C5.75442 2.73374 5.66663 2.9457 5.66663 3.16671C5.66663 3.38773 5.75442 3.59969 5.9107 3.75597C6.06698 3.91225 6.27895 4.00005 6.49996 4.00005ZM11.5 9.83338C11.721 9.83338 11.9329 9.74558 12.0892 9.5893C12.2455 9.43302 12.3333 9.22106 12.3333 9.00005C12.3333 8.77903 12.2455 8.56707 12.0892 8.41079C11.9329 8.25451 11.721 8.16672 11.5 8.16672C11.2789 8.16672 11.067 8.25451 10.9107 8.41079C10.7544 8.56707 10.6666 8.77903 10.6666 9.00005C10.6666 9.22106 10.7544 9.43302 10.9107 9.5893C11.067 9.74558 11.2789 9.83338 11.5 9.83338ZM6.49996 15.6667C6.72097 15.6667 6.93293 15.5789 7.08921 15.4226C7.24549 15.2664 7.33329 15.0544 7.33329 14.8334C7.33329 14.6124 7.24549 14.4004 7.08921 14.2441C6.93293 14.0878 6.72097 14 6.49996 14C6.27895 14 6.06698 14.0878 5.9107 14.2441C5.75442 14.4004 5.66663 14.6124 5.66663 14.8334C5.66663 15.0544 5.75442 15.2664 5.9107 15.4226C6.06698 15.5789 6.27895 15.6667 6.49996 15.6667Z" fill="white"/>
</svg>
