<svg width="16" height="16" viewBox="0 0 16 16" fill="none" xmlns="http://www.w3.org/2000/svg">
<path d="M4.66665 8.00016H7.99998M7.99998 8.00016H11.3333M7.99998 8.00016V11.3335M7.99998 8.00016V4.66683M1.33331 12.0003V4.00033C1.33331 3.0669 1.33331 2.59985 1.51497 2.24333C1.67475 1.92972 1.92954 1.67494 2.24315 1.51515C2.59966 1.3335 3.06672 1.3335 4.00015 1.3335H12.0001C12.9336 1.3335 13.4001 1.3335 13.7566 1.51515C14.0701 1.67494 14.3254 1.92972 14.4851 2.24333C14.6668 2.59985 14.6668 3.06655 14.6668 3.99998V12C14.6668 12.9334 14.6668 13.4002 14.4851 13.7567C14.3254 14.0702 14.0701 14.3256 13.7566 14.4853C13.4004 14.6668 12.9346 14.6668 12.003 14.6668H3.9974C3.0658 14.6668 2.59931 14.6668 2.24315 14.4853C1.92954 14.3256 1.67475 14.0703 1.51497 13.7567C1.33331 13.4002 1.33331 12.9337 1.33331 12.0003Z" stroke="#199CD9" stroke-width="1.5" stroke-linecap="round" stroke-linejoin="round"/>
</svg>
