<svg width="40" height="41" viewBox="0 0 40 41" fill="none" xmlns="http://www.w3.org/2000/svg">
<circle cx="20" cy="20.6189" r="20" fill="#F6F8FA"/>
<g clip-path="url(#clip0_12870_33121)">
<path d="M14.1667 19.8689L15.8333 18.2022L20.4167 22.7856L23.3333 19.8689L25.8333 22.3689V14.7856H14.1667V19.8689ZM13.3333 13.1189H26.6667C26.8877 13.1189 27.0996 13.2067 27.2559 13.363C27.4122 13.5193 27.5 13.7312 27.5 13.9522V27.2856C27.5 27.5066 27.4122 27.7185 27.2559 27.8748C27.0996 28.0311 26.8877 28.1189 26.6667 28.1189H13.3333C13.1123 28.1189 12.9004 28.0311 12.7441 27.8748C12.5878 27.7185 12.5 27.5066 12.5 27.2856V13.9522C12.5 13.7312 12.5878 13.5193 12.7441 13.363C12.9004 13.2067 13.1123 13.1189 13.3333 13.1189ZM22.9167 18.9522C22.5851 18.9522 22.2672 18.8205 22.0328 18.5861C21.7984 18.3517 21.6667 18.0338 21.6667 17.7022C21.6667 17.3707 21.7984 17.0528 22.0328 16.8183C22.2672 16.5839 22.5851 16.4522 22.9167 16.4522C23.2482 16.4522 23.5661 16.5839 23.8005 16.8183C24.035 17.0528 24.1667 17.3707 24.1667 17.7022C24.1667 18.0338 24.035 18.3517 23.8005 18.5861C23.5661 18.8205 23.2482 18.9522 22.9167 18.9522Z" fill="#012040"/>
</g>
<defs>
<clipPath id="clip0_12870_33121">
<rect width="20" height="20" fill="white" transform="translate(10 10.6189)"/>
</clipPath>
</defs>
</svg>
