<svg width="26" height="26" viewBox="0 0 26 26" fill="none" xmlns="http://www.w3.org/2000/svg">
<path d="M23.9776 13.5729H23.3144V11.2915C23.3144 9.72636 22.0411 8.42645 20.4494 8.42645L13.7644 8.42663V6.06565C14.7459 5.69427 15.4357 4.73926 15.4357 3.62509C15.4357 2.16601 14.2684 0.998779 12.8094 0.998779C11.3504 0.998779 10.1831 2.16605 10.1831 3.62509C10.1831 4.73926 10.8728 5.66778 11.8544 6.06565V8.42663H5.14287C3.57778 8.42663 2.27786 9.69993 2.27786 11.2916V13.573L1.64115 13.5729C0.845266 13.5729 0.20874 14.2096 0.20874 15.0053V18.3744C0.20874 19.1702 0.845456 19.8068 1.64115 19.8068H2.30434V22.3004C2.30434 23.8655 3.57763 25.1654 5.16935 25.1654H20.4759C22.041 25.1654 23.3409 23.8922 23.3409 22.3004V19.8068H24.0041C24.8 19.8068 25.4365 19.1701 25.4365 18.3744V15.0055C25.4101 14.2361 24.7733 13.5729 23.9776 13.5729ZM6.65496 14.6605C6.65496 13.4668 7.60996 12.5118 8.80366 12.5118C9.99737 12.5118 10.9524 13.4668 10.9524 14.6605C10.9524 15.8543 9.99737 16.8093 8.80366 16.8093C7.60996 16.8093 6.65496 15.8543 6.65496 14.6605ZM14.9051 21.3986H10.7139C10.1833 21.3986 9.75885 20.9741 9.75885 20.4436C9.75885 19.9131 10.1833 19.4886 10.7139 19.4886H14.8788C15.4093 19.4886 15.8338 19.9131 15.8338 20.4436C15.8601 20.9741 15.4092 21.3986 14.9051 21.3986ZM16.8151 16.8092C15.6214 16.8092 14.6664 15.8542 14.6664 14.6605C14.6664 13.4667 15.6214 12.5117 16.8151 12.5117C18.0088 12.5117 18.9638 13.4667 18.9638 14.6605C18.964 15.8542 18.009 16.8092 16.8151 16.8092Z" fill="#A6ABAF"/>
</svg>
