<svg width="8" height="8" viewBox="0 0 8 8" fill="none" xmlns="http://www.w3.org/2000/svg">
<path fill-rule="evenodd" clip-rule="evenodd" d="M1.13807 0.195262L3.966 3.02333L6.79493 0.195262C7.05528 -0.0650874 7.47739 -0.0650874 7.73774 0.195262C7.99809 0.455612 7.99809 0.877722 7.73774 1.13807L4.90933 3.966L7.73774 6.79493C7.99809 7.05528 7.99809 7.47739 7.73774 7.73774C7.47739 7.99809 7.05528 7.99809 6.79493 7.73774L3.966 4.90933L1.13807 7.73774C0.877722 7.99809 0.455612 7.99809 0.195262 7.73774C-0.0650874 7.47739 -0.0650874 7.05528 0.195262 6.79493L3.02333 3.966L0.195262 1.13807C-0.0650874 0.877722 -0.0650874 0.455612 0.195262 0.195262C0.455612 -0.0650874 0.877722 -0.0650874 1.13807 0.195262Z" fill="#D1D5DA"/>
</svg>
