<svg width="97" height="24" viewBox="0 0 97 24" fill="none" xmlns="http://www.w3.org/2000/svg">
<path d="M0.0883674 16.979C0.110459 17.3545 0.309286 17.5754 0.684848 17.5975C1.43597 17.6196 2.18709 17.6196 2.91613 17.5975C3.31378 17.5754 3.51261 17.3545 3.51261 16.9569C3.5347 15.3663 3.5347 13.0687 3.5347 10.0421C4.17536 9.20263 4.97067 8.78288 5.89853 8.78288C7.3345 8.78288 8.08562 9.71074 8.1298 11.5444V16.9569C8.1298 17.3545 8.32863 17.5754 8.72628 17.5975C9.45532 17.6196 10.2064 17.6196 10.9576 17.5975C11.3331 17.5754 11.554 17.3545 11.5761 16.979C11.5982 14.35 11.5982 12.4943 11.5761 11.4118C11.5099 7.96549 9.94134 5.95513 6.76011 5.95513C5.39041 5.95513 4.28582 6.48533 3.46842 7.56783C3.49051 6.22023 3.46842 4.20987 3.44633 1.58094C3.44633 1.20538 3.2475 0.984458 2.87194 0.962366C2.09873 0.918183 1.3476 0.918183 0.618572 0.962366C0.265102 0.984458 0.0220919 1.24956 0.0220919 1.58094C-0.0220919 5.09354 5.62725e-09 10.2409 0.0883674 16.979Z" fill="white"/>
<path d="M14.2579 14.1291C14.2579 16.515 15.959 17.8626 18.4995 17.8626C20.2006 17.8626 21.4598 17.1999 22.2551 15.8965L22.1889 16.9127C22.1668 17.2882 22.4319 17.5754 22.8074 17.5975C23.4923 17.6417 24.155 17.6417 24.8178 17.5975C25.2154 17.5754 25.4143 17.3545 25.4143 16.979C25.5247 14.814 25.591 12.6711 25.591 10.5281C25.7236 6.90508 22.8516 5.95513 19.9797 5.95513C18.2344 5.95513 16.6438 6.2865 15.252 6.94926C14.8985 7.12599 14.8102 7.3911 14.9869 7.76666C15.1857 8.2085 15.3846 8.60615 15.5834 8.93753C15.6938 9.11426 15.8706 9.20263 16.0915 9.20263C16.202 9.20263 16.2903 9.18054 16.4008 9.13635C17.4833 8.67243 18.5437 8.45151 19.6041 8.45151C21.6586 8.45151 22.3877 9.15845 22.3877 10.727C21.261 10.4398 20.2669 10.3072 19.3611 10.3072C16.2903 10.3072 14.2579 11.6769 14.2579 14.1291ZM19.8471 12.5164C20.7087 12.5164 21.5482 12.6048 22.3435 12.7815C22.2551 13.5989 21.9238 14.2617 21.3494 14.7919C20.775 15.3442 20.1122 15.6093 19.3832 15.6093C18.124 15.6093 17.3507 15.057 17.3507 14.1733C17.3507 13.135 18.2786 12.5164 19.8471 12.5164Z" fill="white"/>
<path d="M28.5051 22.4798C28.5051 22.8333 28.6818 23.0321 29.0574 23.0542C29.2562 23.0763 29.5876 23.0763 30.0736 23.0763C30.5375 23.0763 30.891 23.0763 31.1119 23.0542C31.4654 23.0321 31.6421 22.8333 31.6421 22.4798L31.62 15.9406C32.2386 17.0673 33.6525 17.8626 35.3535 17.8626C36.9221 17.8626 38.2034 17.3545 39.2417 16.3162C40.2579 15.2779 40.7881 13.864 40.8544 12.0525C40.9207 10.3072 40.4347 8.84916 39.3963 7.67829C38.358 6.52952 37.0325 5.95513 35.3756 5.95513C33.5862 5.95513 32.2386 6.88299 31.62 8.05385V6.8388C31.62 6.46324 31.4212 6.24232 31.0456 6.22023C30.2282 6.15395 29.4992 6.15395 28.8585 6.22023C28.483 6.24232 28.2841 6.46324 28.2841 6.8388C28.262 12.9582 28.3283 18.1719 28.5051 22.4798ZM32.592 9.42355C33.1443 8.84916 33.8071 8.56197 34.6024 8.58406C36.3035 8.60615 37.5406 9.90957 37.4743 12.0525C37.4081 14.1733 36.193 15.3884 34.4478 15.3663C33.6525 15.3442 32.9897 15.0128 32.4595 14.3721C31.9293 13.7315 31.6863 12.892 31.7084 11.8537C31.7305 10.8153 32.0397 9.99794 32.592 9.42355Z" fill="white"/>
<path d="M43.5448 22.4798C43.5448 22.8333 43.7215 23.0321 44.0971 23.0542C44.2959 23.0763 44.6273 23.0763 45.1133 23.0763C45.5772 23.0763 45.9307 23.0763 46.1516 23.0542C46.5051 23.0321 46.6818 22.8333 46.6818 22.4798L46.6597 15.9406C47.2783 17.0673 48.6922 17.8626 50.3932 17.8626C51.9618 17.8626 53.2431 17.3545 54.2814 16.3162C55.2976 15.2779 55.8278 13.864 55.8941 12.0525C55.9604 10.3072 55.4744 8.84916 54.4361 7.67829C53.3977 6.52952 52.0722 5.95513 50.4153 5.95513C48.6259 5.95513 47.2783 6.88299 46.6597 8.05385V6.8388C46.6597 6.46324 46.4609 6.24232 46.0853 6.22023C45.2679 6.15395 44.5389 6.15395 43.8982 6.22023C43.5227 6.24232 43.3239 6.46324 43.3239 6.8388C43.3018 12.9582 43.368 18.1719 43.5448 22.4798ZM47.6318 9.42355C48.1841 8.84916 48.8468 8.56197 49.6421 8.58406C51.3432 8.60615 52.5803 9.90957 52.5141 12.0525C52.4478 14.1733 51.2327 15.3884 49.4875 15.3663C48.6922 15.3442 48.0294 15.0128 47.4992 14.3721C46.969 13.7315 46.726 12.892 46.7481 11.8537C46.7702 10.8153 47.0795 9.99794 47.6318 9.42355Z" fill="white"/>
<path d="M58.4078 6.8388C58.4078 8.03176 58.4519 11.4118 58.5182 16.979C58.5403 17.3545 58.7612 17.5754 59.1368 17.5975C59.8216 17.6196 60.5065 17.6196 61.1913 17.5975C61.5669 17.5754 61.7657 17.3545 61.7878 16.979C61.8983 12.9803 61.9204 9.60028 61.8983 6.8388C61.8983 6.44115 61.6994 6.22023 61.3018 6.19814C60.5286 6.17604 59.7775 6.17604 59.0042 6.19814C58.6066 6.22023 58.4078 6.44115 58.4078 6.8388ZM61.5227 4.43079C61.8541 4.1215 62.0308 3.70176 62.0308 3.14946C62.1855 1.53676 59.9321 0.918183 58.8938 1.86813C58.5624 2.17742 58.3857 2.59716 58.3857 3.14946C58.3857 3.70176 58.5624 4.1215 58.8938 4.43079C59.5786 5.04936 60.8158 5.04936 61.5227 4.43079Z" fill="white"/>
<path d="M64.9509 1.58094C64.9509 6.46324 64.9951 11.5885 65.0614 16.9569C65.0835 17.3545 65.3044 17.5754 65.6799 17.5975C66.3648 17.6196 67.0496 17.6196 67.7345 17.5975C68.1101 17.5754 68.3089 17.3545 68.331 16.9569C68.4414 10.9258 68.4856 5.80048 68.4414 1.58094C68.4414 1.18328 68.2426 0.962366 67.867 0.940275C67.0938 0.918183 66.3206 0.918183 65.5474 0.940275C65.1497 0.962366 64.9509 1.18328 64.9509 1.58094Z" fill="white"/>
<path d="M77.3869 17.8626C79.4194 17.8626 80.9658 17.3103 82.0262 16.2057C82.2692 15.9627 82.2692 15.7197 82.0262 15.4546C81.5844 15.057 81.0763 14.7256 80.5019 14.4605C80.2809 14.35 80.0821 14.3721 79.9054 14.4826C79.0438 14.9686 78.2043 15.2116 77.3869 15.2116C75.7742 15.2116 74.8243 14.5268 74.5812 13.135L81.3634 13.0245C82.5343 13.0245 83.1087 12.2734 83.0203 11.1025C82.9099 9.71074 82.3576 8.49569 81.3855 7.47946C80.3914 6.46324 78.9554 5.95513 77.0776 5.95513C75.3103 5.95513 73.8743 6.50742 72.7918 7.61202C71.6872 8.71661 71.1349 10.1305 71.1349 11.8757C71.1349 13.6652 71.6651 15.1232 72.7476 16.2057C73.8301 17.3103 75.3766 17.8626 77.3869 17.8626ZM77.0997 8.58406C78.5357 8.58406 79.3752 9.33518 79.6182 10.8595L74.6033 10.9258C74.7801 9.51192 75.6637 8.58406 77.0997 8.58406Z" fill="white"/>
<path d="M91.1106 17.8626C93.1431 17.8626 94.6895 17.3103 95.7499 16.2057C95.9929 15.9627 95.9929 15.7197 95.7499 15.4546C95.3081 15.057 94.8 14.7256 94.2256 14.4605C94.0046 14.35 93.8058 14.3721 93.6291 14.4826C92.7675 14.9686 91.928 15.2116 91.1106 15.2116C89.4979 15.2116 88.548 14.5268 88.3049 13.135L95.0872 13.0245C96.258 13.0245 96.8324 12.2734 96.744 11.1025C96.6336 9.71074 96.0813 8.49569 95.1092 7.47946C94.1151 6.46324 92.6791 5.95513 90.8013 5.95513C89.034 5.95513 87.598 6.50742 86.5155 7.61202C85.4109 8.71661 84.8586 10.1305 84.8586 11.8757C84.8586 13.6652 85.3888 15.1232 86.4713 16.2057C87.5538 17.3103 89.1003 17.8626 91.1106 17.8626ZM90.8234 8.58406C92.2594 8.58406 93.0989 9.33518 93.3419 10.8595L88.327 10.9258C88.5038 9.51192 89.3875 8.58406 90.8234 8.58406Z" fill="white"/>
</svg>
