<svg width="105" height="104" viewBox="0 0 105 104" fill="none" xmlns="http://www.w3.org/2000/svg">
<g clip-path="url(#clip0_11583_30642)">
<path fill-rule="evenodd" clip-rule="evenodd" d="M89.3442 46.4698C89.3442 54.0712 87.0424 61.1351 83.0979 67.0024L85.5271 81.4491C85.7038 82.4998 84.6768 83.3477 83.6786 82.9753L71.0998 78.2836C65.6396 81.4835 59.2821 83.3178 52.4961 83.3178C32.1455 83.3178 15.6481 66.8204 15.6481 46.4698C15.6481 26.1191 32.1455 9.6217 52.4961 9.6217C72.8467 9.6217 89.3442 26.1191 89.3442 46.4698ZM24.9357 48.1544C24.7329 46.3942 26.1882 44.9531 27.96 44.9531C29.7318 44.9531 31.1437 46.3973 31.4065 48.1495C32.0862 52.6808 34.1992 56.9083 37.4785 60.1876C41.519 64.2281 46.999 66.498 52.7131 66.498C58.4271 66.498 63.9072 64.2281 67.9476 60.1876C71.2269 56.9083 73.3399 52.6808 74.0196 48.1495C74.2825 46.3973 75.6943 44.9531 77.4661 44.9531C79.2379 44.9531 80.6933 46.3942 80.4905 48.1544C79.7718 54.3917 76.9681 60.2411 72.4846 64.7246C67.2409 69.9683 60.1288 72.9142 52.7131 72.9142C45.2973 72.9142 38.1853 69.9683 32.9415 64.7246C28.458 60.2411 25.6543 54.3917 24.9357 48.1544Z" fill="white"/>
</g>
<defs>
<clipPath id="clip0_11583_30642">
<rect width="73.6961" height="84.7585" fill="white" transform="translate(15.6481 9.6217)"/>
</clipPath>
</defs>
</svg>
