<svg width="25" height="26" viewBox="0 0 25 26" fill="none" xmlns="http://www.w3.org/2000/svg">
<path fill-rule="evenodd" clip-rule="evenodd" d="M24.558 13.0016C24.558 15.4894 23.8047 17.8011 22.5138 19.7213L23.3088 24.4493C23.3666 24.7932 23.0305 25.0707 22.7038 24.9488L18.5871 23.4134C16.8002 24.4606 14.7195 25.0609 12.4987 25.0609C5.83857 25.0609 0.439453 19.6618 0.439453 13.0016C0.439453 6.3415 5.83857 0.942383 12.4987 0.942383C19.1589 0.942383 24.558 6.3415 24.558 13.0016ZM3.47897 13.553C3.41259 12.9769 3.88889 12.5053 4.46875 12.5053C5.04861 12.5053 5.51066 12.9779 5.59668 13.5514C5.81914 15.0343 6.51066 16.4179 7.58387 17.4911C8.90619 18.8134 10.6996 19.5563 12.5697 19.5563C14.4397 19.5563 16.2332 18.8134 17.5555 17.4911C18.6287 16.4179 19.3202 15.0343 19.5427 13.5514C19.6287 12.9779 20.0907 12.5053 20.6706 12.5053C21.2505 12.5053 21.7268 12.9769 21.6604 13.553C21.4252 15.5942 20.5076 17.5086 19.0403 18.9759C17.3242 20.692 14.9966 21.6561 12.5697 21.6561C10.1427 21.6561 7.81516 20.692 6.09905 18.9759C4.63172 17.5086 3.71417 15.5942 3.47897 13.553Z" fill="#00C5E6"/>
</svg>
