<svg width="15" height="15" viewBox="0 0 15 15" fill="none" xmlns="http://www.w3.org/2000/svg">
<path d="M7.26667 0.900024L13.866 1.84336L14.8087 8.44336L8.68067 14.5714C8.55565 14.6963 8.38611 14.7665 8.20933 14.7665C8.03256 14.7665 7.86302 14.6963 7.738 14.5714L1.138 7.97136C1.01302 7.84634 0.94281 7.6768 0.94281 7.50002C0.94281 7.32325 1.01302 7.15371 1.138 7.02869L7.26667 0.900024ZM7.738 2.31469L2.552 7.50002L8.20933 13.1567L13.3947 7.97136L12.688 3.02136L7.738 2.31469ZM9.15133 6.55736C8.90124 6.30717 8.76077 5.96788 8.76083 5.61412C8.76086 5.43896 8.79539 5.26552 8.86245 5.1037C8.92951 4.94189 9.02779 4.79486 9.15167 4.67102C9.27555 4.54719 9.42261 4.44896 9.58445 4.38196C9.74629 4.31496 9.91974 4.28049 10.0949 4.28052C10.4487 4.28058 10.7879 4.42117 11.038 4.67136C11.2881 4.92155 11.4286 5.26084 11.4285 5.61459C11.4284 5.96835 11.2879 6.30759 11.0377 6.55769C10.7875 6.80779 10.4482 6.94826 10.0944 6.9482C9.74068 6.94813 9.40143 6.80755 9.15133 6.55736Z" fill="#012040"/>
</svg>
