<svg width="14" height="14" viewBox="0 0 14 14" fill="none" xmlns="http://www.w3.org/2000/svg">
<path d="M1.33341 13.6667C1.1566 13.6667 0.987035 13.5965 0.86201 13.4714C0.736986 13.3464 0.666748 13.1769 0.666748 13V1.00004C0.666748 0.82323 0.736986 0.65366 0.86201 0.528636C0.987035 0.403612 1.1566 0.333374 1.33341 0.333374H10.6667C10.8436 0.333374 11.0131 0.403612 11.1382 0.528636C11.2632 0.65366 11.3334 0.82323 11.3334 1.00004V3.00004H10.0001V1.66671H2.00008V12.3334H10.0001V11H11.3334V13C11.3334 13.1769 11.2632 13.3464 11.1382 13.4714C11.0131 13.5965 10.8436 13.6667 10.6667 13.6667H1.33341ZM10.0001 9.66671V7.66671H5.33341V6.33337H10.0001V4.33337L13.3334 7.00004L10.0001 9.66671Z" fill="#012040"/>
</svg>
