<svg width="135" height="241" viewBox="0 0 135 241" fill="none" xmlns="http://www.w3.org/2000/svg">
<g clip-path="url(#clip0_11587_30837)">
<path d="M71.628 39.6485C71.7666 39.6489 71.9038 39.6219 72.0319 39.569C72.16 39.5161 72.2763 39.4384 72.3742 39.3403C72.4721 39.2422 72.5496 39.1257 72.6022 38.9976C72.6549 38.8694 72.6817 38.7321 72.681 38.5935C72.6808 29.9754 69.2622 21.7092 63.1753 15.6082C57.0884 9.50724 48.8301 6.06966 40.212 6.04953C39.9321 6.04953 39.6636 6.16073 39.4656 6.35868C39.2677 6.55662 39.1565 6.82509 39.1565 7.10503C39.1565 7.38497 39.2677 7.65344 39.4656 7.85138C39.6636 8.04933 39.9321 8.16053 40.212 8.16053C48.2762 8.17933 56.0038 11.3959 61.6996 17.1047C67.3955 22.8134 70.5945 30.5483 70.595 38.6125C70.5924 38.749 70.6174 38.8847 70.6683 39.0113C70.7193 39.138 70.7952 39.2531 70.8916 39.3497C70.988 39.4464 71.1029 39.5227 71.2294 39.574C71.3559 39.6254 71.4915 39.6507 71.628 39.6485Z" fill="#86C0E0"/>
<path d="M40.212 13.3995C43.6798 13.3995 46.491 10.5816 46.491 7.10552C46.491 3.62944 43.6798 0.811523 40.212 0.811523C36.7442 0.811523 33.933 3.62944 33.933 7.10552C33.933 10.5816 36.7442 13.3995 40.212 13.3995Z" fill="url(#paint0_linear_11587_30837)"/>
<path d="M38.107 7.08453C39.2596 7.08453 40.194 6.14835 40.194 4.99353C40.194 3.8387 39.2596 2.90253 38.107 2.90253C36.9544 2.90253 36.02 3.8387 36.02 4.99353C36.02 6.14835 36.9544 7.08453 38.107 7.08453Z" fill="white"/>
<path d="M87.3459 54.3475C87.3459 60.3675 55.9299 60.3675 55.9299 54.3475C55.9299 52.2847 56.3362 50.2421 57.1256 48.3363C57.915 46.4306 59.0721 44.6989 60.5307 43.2403C61.9893 41.7817 63.721 40.6246 65.6267 39.8352C67.5325 39.0458 69.5751 38.6395 71.6379 38.6395C73.7007 38.6395 75.7433 39.0458 77.6491 39.8352C79.5549 40.6246 81.2865 41.7817 82.7452 43.2403C84.2038 44.6989 85.3608 46.4306 86.1502 48.3363C86.9396 50.2421 87.3459 52.2847 87.3459 54.3475Z" fill="url(#paint1_linear_11587_30837)"/>
<path d="M124.009 101.921C124.009 130.907 102.309 133.409 73.3839 133.409C44.4589 133.409 19.2679 130.907 19.2679 101.921C19.2679 88.031 24.7855 74.7104 34.6069 64.889C44.4283 55.0676 57.7489 49.55 71.6384 49.55C85.528 49.55 98.8486 55.0676 108.67 64.889C118.491 74.7104 124.009 88.031 124.009 101.921Z" fill="url(#paint2_linear_11587_30837)"/>
<path d="M80.696 54.6405C85.377 55.2248 89.9223 56.6118 94.132 58.7405C98.3888 60.8649 102.274 63.6633 105.638 67.0275C109.019 70.3915 111.825 74.2872 113.945 78.5595L115.369 81.8235L116.559 85.1655L117.417 88.6055C117.632 89.7585 117.807 90.9315 117.963 92.0845C117.988 92.2552 117.944 92.4288 117.842 92.5679C117.74 92.7069 117.587 92.8001 117.417 92.8275C117.263 92.8495 117.106 92.8138 116.977 92.7272C116.848 92.6406 116.755 92.5093 116.717 92.3585V92.3385C115.477 87.9951 113.722 83.8157 111.489 79.8895C107.063 72.0736 100.669 65.5511 92.943 60.9695C89.035 58.6869 84.8637 56.8887 80.521 55.6145C80.3895 55.5746 80.279 55.4846 80.2133 55.3639C80.1476 55.2433 80.1321 55.1016 80.17 54.9695C80.2061 54.8623 80.2782 54.7709 80.3742 54.7109C80.4701 54.6509 80.5838 54.626 80.696 54.6405Z" fill="white"/>
<path d="M58.4259 108.312C58.2346 108.383 58.0516 108.475 57.8799 108.586C58.0516 108.475 58.2346 108.383 58.4259 108.312Z" fill="url(#paint3_linear_11587_30837)"/>
<path d="M86.1759 111.088C84.9917 113.967 82.9783 116.43 80.3915 118.163C77.8047 119.897 74.7612 120.822 71.6474 120.822C68.5337 120.822 65.4901 119.897 62.9033 118.163C60.3165 116.43 58.3032 113.967 57.1189 111.088C56.9424 110.646 56.9216 110.158 57.06 109.704C57.1983 109.249 57.4876 108.855 57.8799 108.588C57.4864 108.873 57.2009 109.284 57.0698 109.752C56.9388 110.22 56.9698 110.719 57.1579 111.168C57.3339 111.598 57.5289 112.008 57.7429 112.419H85.5129C85.7279 112.009 85.9229 111.598 86.0979 111.168C86.2907 110.72 86.3242 110.219 86.1928 109.75C86.0614 109.28 85.7731 108.87 85.3759 108.588C85.7776 108.848 86.0767 109.239 86.2226 109.695C86.3684 110.15 86.3519 110.643 86.1759 111.088Z" fill="url(#paint4_linear_11587_30837)"/>
<path d="M86.1179 111.185C85.9419 111.615 85.7469 112.025 85.5329 112.436H57.7629C57.5479 112.026 57.3529 111.615 57.1779 111.185C56.9851 110.737 56.9516 110.236 57.083 109.767C57.2144 109.297 57.5027 108.887 57.8999 108.605C58.0716 108.494 58.2546 108.402 58.4459 108.331C58.6545 108.266 58.8715 108.232 59.0899 108.231H84.2069C84.4253 108.232 84.6423 108.266 84.8509 108.331C84.9832 108.369 85.1084 108.428 85.2219 108.507C85.276 108.547 85.3352 108.581 85.3979 108.607C85.7953 108.889 86.0837 109.299 86.2148 109.768C86.3459 110.237 86.3117 110.737 86.1179 111.185Z" fill="white"/>
<path d="M90.174 72.5245H53.103C50.7209 72.5264 48.3625 72.9976 46.1626 73.9113C43.9627 74.825 41.9644 76.1632 40.2819 77.8495C38.5994 79.5358 37.2657 81.5371 36.357 83.739C35.4483 85.941 34.9824 88.3004 34.986 90.6825C34.9843 91.88 35.2185 93.066 35.6753 94.1728C36.1321 95.2797 36.8025 96.2857 37.6483 97.1334C38.494 97.9811 39.4985 98.6538 40.6043 99.1132C41.7101 99.5725 42.8956 99.8095 44.093 99.8105H99.184C100.381 99.8144 101.566 99.5796 102.671 99.1198C103.776 98.6599 104.778 97.9843 105.619 97.1325C106.466 96.2858 107.139 95.2803 107.597 94.1736C108.056 93.0668 108.291 91.8805 108.291 90.6825C108.297 88.2998 107.832 85.9394 106.924 83.7364C106.017 81.5334 104.683 79.5312 103 77.8445C101.317 76.1577 99.3179 74.8196 97.117 73.9067C94.9161 72.9938 92.5567 72.5241 90.174 72.5245ZM52.966 95.6245C51.0978 95.6289 49.2703 95.0789 47.7149 94.0441C46.1594 93.0094 44.9459 91.5365 44.228 89.8117C43.51 88.087 43.3199 86.188 43.6817 84.3552C44.0435 82.5224 44.9409 80.8381 46.2604 79.5156C47.5799 78.193 49.2621 77.2917 51.094 76.9256C52.926 76.5595 54.8254 76.7452 56.5518 77.4591C58.2782 78.173 59.754 79.3831 60.7923 80.9361C61.8307 82.4892 62.385 84.3153 62.385 86.1835C62.3863 88.684 61.3951 91.0828 59.629 92.853C57.863 94.6232 55.4665 95.62 52.966 95.6245ZM90.311 95.6245C88.4428 95.6289 86.6153 95.0789 85.0599 94.0441C83.5044 93.0094 82.2909 91.5365 81.573 89.8117C80.855 88.087 80.6649 86.188 81.0267 84.3552C81.3885 82.5224 82.2859 80.8381 83.6054 79.5156C84.9249 78.193 86.6071 77.2917 88.439 76.9256C90.271 76.5595 92.1704 76.7452 93.8968 77.4591C95.6232 78.173 97.099 79.3831 98.1373 80.9361C99.1757 82.4892 99.73 84.3153 99.73 86.1835C99.7313 88.684 98.7401 91.0828 96.974 92.853C95.208 94.6232 92.8115 95.62 90.311 95.6245Z" fill="url(#paint5_linear_11587_30837)"/>
<path d="M52.9649 93.5155C57.0143 93.5155 60.2969 90.2252 60.2969 86.1665C60.2969 82.1078 57.0143 78.8175 52.9649 78.8175C48.9156 78.8175 45.6329 82.1078 45.6329 86.1665C45.6329 90.2252 48.9156 93.5155 52.9649 93.5155Z" fill="#0C3966"/>
<path d="M90.31 93.5155C94.3594 93.5155 97.642 90.2252 97.642 86.1665C97.642 82.1078 94.3594 78.8175 90.31 78.8175C86.2607 78.8175 82.978 82.1078 82.978 86.1665C82.978 90.2252 86.2607 93.5155 90.31 93.5155Z" fill="#0C3966"/>
<path d="M90.311 91.2095C91.5842 91.0357 92.7638 90.4445 93.665 89.5285C94.5563 88.6096 95.1366 87.434 95.324 86.1675C95.3327 86.108 95.3639 86.0541 95.4111 86.0169C95.4584 85.9797 95.5181 85.962 95.578 85.9675C95.6276 85.9769 95.6732 86.001 95.7088 86.0367C95.7445 86.0724 95.7686 86.118 95.778 86.1675C95.8822 86.8976 95.8085 87.6421 95.563 88.3375C95.3082 89.0423 94.902 89.6827 94.373 90.2135C93.848 90.7405 93.21 91.1411 92.5073 91.3849C91.8045 91.6287 91.0555 91.7093 90.317 91.6205C90.2896 91.6177 90.263 91.6092 90.239 91.5956C90.2151 91.582 90.1941 91.5636 90.1776 91.5415C90.1611 91.5194 90.1493 91.4942 90.143 91.4673C90.1367 91.4405 90.136 91.4127 90.141 91.3855C90.153 91.3447 90.1748 91.3073 90.2044 91.2767C90.234 91.246 90.2705 91.223 90.311 91.2095Z" fill="white"/>
<path d="M51.504 87.2225C53.2382 87.2225 54.644 85.8136 54.644 84.0755C54.644 82.3375 53.2382 80.9285 51.504 80.9285C49.7698 80.9285 48.364 82.3375 48.364 84.0755C48.364 85.8136 49.7698 87.2225 51.504 87.2225Z" fill="white"/>
<path d="M88.848 87.2225C90.5822 87.2225 91.988 85.8136 91.988 84.0755C91.988 82.3375 90.5822 80.9285 88.848 80.9285C87.1138 80.9285 85.708 82.3375 85.708 84.0755C85.708 85.8136 87.1138 87.2225 88.848 87.2225Z" fill="white"/>
<path d="M52.9659 91.2095C54.2391 91.0357 55.4187 90.4445 56.3199 89.5285C57.2111 88.6092 57.791 87.4332 57.9779 86.1665C57.9866 86.107 58.0178 86.0531 58.0651 86.0159C58.1123 85.9787 58.172 85.961 58.2319 85.9665C58.2815 85.9759 58.3271 86 58.3628 86.0356C58.3984 86.0713 58.4225 86.1169 58.4319 86.1665C58.5362 86.8966 58.4624 87.6411 58.2169 88.3365C57.9621 89.0413 57.5559 89.6817 57.0269 90.2125C56.502 90.7395 55.8639 91.1401 55.1612 91.3838C54.4585 91.6276 53.7094 91.7082 52.9709 91.6195C52.9435 91.6166 52.917 91.6081 52.893 91.5945C52.869 91.5809 52.8481 91.5625 52.8315 91.5405C52.815 91.5184 52.8032 91.4932 52.7969 91.4663C52.7906 91.4395 52.7899 91.4116 52.7949 91.3845C52.8072 91.3437 52.8291 91.3065 52.8589 91.276C52.8887 91.2455 52.9254 91.2227 52.9659 91.2095Z" fill="white"/>
<path d="M7.68397 123.91L45.048 141.716C54.058 146.055 56.417 157.841 49.848 165.679C43.276 173.517 31.283 173.243 25.448 165.093L1.46297 131.318C0.81654 130.416 0.488583 129.326 0.53085 128.218C0.573117 127.109 0.983201 126.047 1.69639 125.197C2.40957 124.348 3.38525 123.761 4.46946 123.527C5.55366 123.294 6.68466 123.429 7.68397 123.91Z" fill="url(#paint6_linear_11587_30837)"/>
<path d="M103.064 155.769H40.212C39.9321 155.769 39.6636 155.88 39.4656 156.078C39.2677 156.276 39.1565 156.544 39.1565 156.824C39.1565 157.104 39.2677 157.372 39.4656 157.57C39.6636 157.768 39.9321 157.88 40.212 157.88H103.064C103.344 157.88 103.612 157.768 103.81 157.57C104.008 157.372 104.119 157.104 104.119 156.824C104.119 156.544 104.008 156.276 103.81 156.078C103.612 155.88 103.344 155.769 103.064 155.769Z" fill="#86C0E0"/>
<path d="M111.021 165.855L87.7209 206.295C86.0936 209.12 83.7507 211.466 80.9281 213.098C78.1054 214.729 74.9027 215.588 71.6424 215.588C68.3821 215.588 65.1794 214.729 62.3568 213.098C59.5341 211.466 57.1912 209.12 55.5639 206.295L32.2639 165.855C30.6335 163.027 29.7748 159.82 29.7738 156.556C29.7728 153.292 30.6295 150.085 32.2581 147.256C33.8867 144.428 36.2301 142.077 39.0534 140.439C41.8767 138.801 45.0809 137.933 48.3449 137.924H94.9329C98.1983 137.93 101.404 138.796 104.23 140.433C107.055 142.07 109.4 144.421 111.03 147.25C112.66 150.08 113.517 153.288 113.515 156.554C113.514 159.819 112.654 163.027 111.021 165.855Z" fill="url(#paint7_linear_11587_30837)"/>
<path d="M112.639 200.157L89.1599 166.011C83.5239 157.743 87.3659 146.348 96.9599 142.85C99.1617 142.008 101.527 141.683 103.874 141.899C106.221 142.115 108.488 142.866 110.499 144.095C112.51 145.324 114.213 146.997 115.477 148.987C116.741 150.977 117.531 153.23 117.788 155.573L121.727 196.853C121.834 197.955 121.572 199.062 120.982 199.999C120.391 200.936 119.505 201.65 118.464 202.029C117.423 202.407 116.286 202.429 115.231 202.09C114.176 201.751 113.265 201.071 112.639 200.157Z" fill="url(#paint8_linear_11587_30837)"/>
<path opacity="0.48" d="M71.648 240.812C106.36 240.812 134.5 235.167 134.5 228.205C134.5 221.242 106.36 215.598 71.648 215.598C36.9358 215.598 8.79602 221.242 8.79602 228.205C8.79602 235.167 36.9358 240.812 71.648 240.812Z" fill="url(#paint9_radial_11587_30837)"/>
</g>
<defs>
<linearGradient id="paint0_linear_11587_30837" x1="587.942" y1="11.6875" x2="597.521" y2="2.13094" gradientUnits="userSpaceOnUse">
<stop offset="0.019" stop-color="#1D8EB5"/>
<stop offset="0.94" stop-color="#A7DBF2"/>
</linearGradient>
<linearGradient id="paint1_linear_11587_30837" x1="63.3755" y1="59.7321" x2="72.758" y2="37.0998" gradientUnits="userSpaceOnUse">
<stop offset="0.128" stop-color="#1D8EB5"/>
<stop offset="0.94" stop-color="#A7DBF2"/>
</linearGradient>
<linearGradient id="paint2_linear_11587_30837" x1="35.9218" y1="134.079" x2="91.8819" y2="46.5397" gradientUnits="userSpaceOnUse">
<stop offset="0.019" stop-color="#1D8EB5"/>
<stop offset="0.94" stop-color="#A7DBF2"/>
</linearGradient>
<linearGradient id="paint3_linear_11587_30837" x1="57.8875" y1="108.457" x2="58.4319" y2="108.457" gradientUnits="userSpaceOnUse">
<stop offset="0.019" stop-color="#0C4782"/>
<stop offset="1" stop-color="#2E6CAA"/>
</linearGradient>
<linearGradient id="paint4_linear_11587_30837" x1="56.9695" y1="114.705" x2="86.3211" y2="114.705" gradientUnits="userSpaceOnUse">
<stop offset="0.019" stop-color="#0C4782"/>
<stop offset="1" stop-color="#2E6CAA"/>
</linearGradient>
<linearGradient id="paint5_linear_11587_30837" x1="36.3788" y1="96.9728" x2="57.976" y2="54.0256" gradientUnits="userSpaceOnUse">
<stop offset="0.019" stop-color="#0C4782"/>
<stop offset="1" stop-color="#2E6CAA"/>
</linearGradient>
<linearGradient id="paint6_linear_11587_30837" x1="-34.0731" y1="55.155" x2="-52.5372" y2="86.8845" gradientUnits="userSpaceOnUse">
<stop offset="0.167" stop-color="#A7DBF2"/>
<stop offset="0.943" stop-color="#1D8EB5"/>
</linearGradient>
<linearGradient id="paint7_linear_11587_30837" x1="100.703" y1="135.982" x2="47.2673" y2="198.248" gradientUnits="userSpaceOnUse">
<stop offset="0.118" stop-color="#A7DBF2"/>
<stop offset="0.931" stop-color="#1D8EB5"/>
</linearGradient>
<linearGradient id="paint8_linear_11587_30837" x1="-102.83" y1="-186.712" x2="-147.964" y2="-167.076" gradientUnits="userSpaceOnUse">
<stop offset="0.06" stop-color="#A7DBF2"/>
<stop offset="0.752" stop-color="#1D8EB5"/>
</linearGradient>
<radialGradient id="paint9_radial_11587_30837" cx="0" cy="0" r="1" gradientUnits="userSpaceOnUse" gradientTransform="translate(71.648 228.205) scale(62.852 12.607)">
<stop stop-color="#3279BF" stop-opacity="0.8"/>
<stop offset="0.377" stop-color="#245688" stop-opacity="0.337"/>
<stop offset="1" stop-color="#193D60" stop-opacity="0"/>
</radialGradient>
<clipPath id="clip0_11587_30837">
<rect width="134" height="240" fill="white" transform="translate(0.5 0.811523)"/>
</clipPath>
</defs>
</svg>
