
<svg width="14" height="15" viewBox="0 0 14 15" fill="none" xmlns="http://www.w3.org/2000/svg">
<path d="M6.33331 0.833374C9.64531 0.833374 12.3333 3.52137 12.3333 6.83337C12.3333 10.1454 9.64531 12.8334 6.33331 12.8334C3.02131 12.8334 0.333313 10.1454 0.333313 6.83337C0.333313 3.52137 3.02131 0.833374 6.33331 0.833374ZM6.33331 11.5C8.91131 11.5 11 9.41137 11 6.83337C11 4.25471 8.91131 2.16671 6.33331 2.16671C3.75465 2.16671 1.66665 4.25471 1.66665 6.83337C1.66665 9.41137 3.75465 11.5 6.33331 11.5ZM11.99 11.5474L13.876 13.4327L12.9326 14.376L11.0473 12.49L11.99 11.5474Z" fill="#012040"/>
</svg>