<svg width="10" height="10" viewBox="0 0 10 10" fill="none" xmlns="http://www.w3.org/2000/svg">
<path fill-rule="evenodd" clip-rule="evenodd" d="M1.42259 0.244078L4.9575 3.77917L8.49366 0.244078C8.81909 -0.0813592 9.34673 -0.0813592 9.67217 0.244078C9.99761 0.569515 9.99761 1.09715 9.67217 1.42259L6.13667 4.9575L9.67217 8.49366C9.99761 8.81909 9.99761 9.34673 9.67217 9.67217C9.34673 9.99761 8.81909 9.99761 8.49366 9.67217L4.9575 6.13667L1.42259 9.67217C1.09715 9.99761 0.569515 9.99761 0.244078 9.67217C-0.0813592 9.34673 -0.0813592 8.81909 0.244078 8.49366L3.77917 4.9575L0.244078 1.42259C-0.0813592 1.09715 -0.0813592 0.569515 0.244078 0.244078C0.569515 -0.0813592 1.09715 -0.0813592 1.42259 0.244078Z" fill="#D1D5DA"/>
</svg>
