<svg width="16" height="13" viewBox="0 0 16 13" fill="none" xmlns="http://www.w3.org/2000/svg">
<path d="M6.66669 3.31331L4.40202 5.16664H2.00002V7.83331H4.40202L6.66669 9.68664V3.31331ZM3.92602 9.16664H1.33335C1.15654 9.16664 0.986973 9.0964 0.861949 8.97138C0.736925 8.84635 0.666687 8.67678 0.666687 8.49997V4.49997C0.666687 4.32316 0.736925 4.15359 0.861949 4.02857C0.986973 3.90355 1.15654 3.83331 1.33335 3.83331H3.92602L7.45535 0.945307C7.50419 0.905272 7.56339 0.879931 7.62606 0.872236C7.68874 0.86454 7.75231 0.874806 7.80938 0.901839C7.86645 0.928871 7.91467 0.971557 7.94842 1.02493C7.98217 1.0783 8.00006 1.14016 8.00002 1.20331V11.7966C8.00006 11.8598 7.98217 11.9216 7.94842 11.975C7.91467 12.0284 7.86645 12.0711 7.80938 12.0981C7.75231 12.1251 7.68874 12.1354 7.62606 12.1277C7.56339 12.12 7.50419 12.0947 7.45535 12.0546L3.92669 9.16664H3.92602ZM13.6094 6.49997L15.9667 8.85731L15.024 9.79997L12.6667 7.44264L10.3094 9.79997L9.36669 8.85731L11.724 6.49997L9.36669 4.14264L10.3094 3.19997L12.6667 5.55731L15.024 3.19997L15.9667 4.14264L13.6094 6.49997Z" fill="#012040"/>
</svg>
