<svg width="14" height="12" viewBox="0 0 14 12" fill="none" xmlns="http://www.w3.org/2000/svg">
<path d="M1.05808 4H12.9421C13.0343 3.99996 13.1256 4.01906 13.21 4.05609C13.2945 4.09312 13.3704 4.14728 13.4329 4.21514C13.4953 4.283 13.543 4.36308 13.573 4.45033C13.6029 4.53757 13.6144 4.63008 13.6067 4.722L13.0507 11.3887C13.0369 11.5553 12.9609 11.7106 12.8379 11.8238C12.7149 11.937 12.5539 11.9999 12.3867 12H1.61341C1.44624 11.9999 1.28521 11.937 1.16223 11.8238C1.03924 11.7106 0.963289 11.5553 0.949414 11.3887L0.393414 4.722C0.385758 4.63008 0.39726 4.53757 0.427191 4.45033C0.457122 4.36308 0.504832 4.283 0.567304 4.21514C0.629775 4.14728 0.705648 4.09312 0.790125 4.05609C0.874602 4.01906 0.965843 3.99996 1.05808 4ZM2.22675 10.6667H11.7734L12.2174 5.33333H1.78275L2.22675 10.6667ZM7.94275 1.33333H12.3334C12.5102 1.33333 12.6798 1.40357 12.8048 1.5286C12.9298 1.65362 13.0001 1.82319 13.0001 2V2.66667H1.00008V0.666667C1.00008 0.489856 1.07032 0.320286 1.19534 0.195262C1.32037 0.0702379 1.48994 0 1.66675 0H6.60941L7.94275 1.33333Z" fill="#2F363D"/>
</svg>
