<svg width="31" height="30" viewBox="0 0 31 30" fill="none" xmlns="http://www.w3.org/2000/svg">
<circle cx="15.5" cy="15" r="15" fill="#199CD9"/>
<path d="M21.3847 15.1836L12.2289 10.5996C12.1572 10.5636 12.0765 10.5492 11.9968 10.5581C11.9171 10.567 11.8416 10.5987 11.7794 10.6496C11.7201 10.6994 11.6758 10.7647 11.6516 10.8384C11.6273 10.912 11.624 10.9909 11.6421 11.0663L12.745 15.1378H17.4519V15.9712H12.745L11.6255 20.0302C11.6085 20.0932 11.6065 20.1592 11.6197 20.2231C11.6328 20.2869 11.6608 20.3468 11.7013 20.3979C11.7418 20.4489 11.7936 20.4898 11.8527 20.5171C11.9119 20.5445 11.9766 20.5575 12.0416 20.5553C12.1068 20.5549 12.1709 20.5392 12.2289 20.5095L21.3847 15.9254C21.4528 15.8904 21.51 15.8373 21.55 15.7719C21.5899 15.7064 21.6111 15.6312 21.6111 15.5545C21.6111 15.4778 21.5899 15.4026 21.55 15.3372C21.51 15.2717 21.4528 15.2186 21.3847 15.1836V15.1836Z" fill="#FEFEFF"/>
</svg>
