<svg width="20" height="18" viewBox="0 0 20 18" fill="none" xmlns="http://www.w3.org/2000/svg">
<path d="M16.7389 17.724L11.5045 13.429H4.3042C1.93114 13.429 0 11.4557 0 9.03078V4.67408C0 2.24919 1.93114 0.275879 4.3042 0.275879H15.6958C18.0689 0.275879 20 2.24919 20 4.67408V9.03078C20 11.0712 18.6322 12.8143 16.7389 13.2965V17.724ZM4.3042 1.52592C2.62024 1.52592 1.25 2.93829 1.25 4.67412V9.03082C1.25 10.7667 2.62024 12.179 4.3042 12.179H11.9513L15.4889 15.0812V12.2223L16.0407 12.157C17.5855 11.9751 18.75 10.6311 18.75 9.03082V4.67408C18.75 2.93825 17.3798 1.52588 15.6958 1.52588H4.3042V1.52592Z" fill="#00C5E6"/>
<path d="M3.56259 7.59274C3.78537 7.72825 4.24741 7.88755 4.6057 7.88755C4.9719 7.88755 5.12329 7.76 5.12329 7.56102C5.12329 7.36143 5.00366 7.26621 4.55019 7.11486C3.74574 6.84388 3.43508 6.40625 3.443 5.94421C3.443 5.21972 4.06435 4.67041 5.02749 4.67041C5.48157 4.67041 5.8881 4.77355 6.12672 4.89319L5.91186 5.72935C5.73668 5.63351 5.40223 5.50596 5.06774 5.50596C4.77292 5.50596 4.6057 5.62559 4.6057 5.82457C4.6057 6.00768 4.75704 6.10351 5.23496 6.27074C5.97533 6.52527 6.28598 6.9 6.29394 7.47314C6.29394 8.19763 5.7208 8.73106 4.6057 8.73106C4.09606 8.73106 3.64194 8.61996 3.34778 8.4607L3.56259 7.59274Z" fill="#00C5E6"/>
<path d="M7.02571 5.99976C7.02571 5.51453 7.00984 5.10008 6.99396 4.75768H8.01326L8.06881 5.28319H8.09261C8.25984 5.03661 8.60224 4.67041 9.27118 4.67041C9.7729 4.67041 10.1709 4.92494 10.3381 5.33082H10.354C10.4974 5.13184 10.6726 4.97253 10.8557 4.86147C11.0711 4.73392 11.3098 4.67045 11.5967 4.67045C12.3449 4.67045 12.9107 5.19596 12.9107 6.35808V8.6518H11.7322V6.5338C11.7322 5.968 11.5484 5.64147 11.1584 5.64147C10.8801 5.64147 10.6805 5.83249 10.6012 6.06384C10.5694 6.1511 10.5536 6.2787 10.5536 6.37449V8.65172H9.37502V6.46972C9.37502 5.97592 9.19984 5.64147 8.81714 5.64147C8.5071 5.64147 8.32335 5.88074 8.25196 6.07972C8.21228 6.17494 8.20437 6.28661 8.20437 6.38245V8.65176H7.02579V5.99976H7.02571Z" fill="#00C5E6"/>
<path d="M13.8647 7.59274C14.0875 7.72825 14.5495 7.88755 14.9078 7.88755C15.274 7.88755 15.4254 7.76 15.4254 7.56102C15.4254 7.36143 15.3058 7.26621 14.8523 7.11486C14.0478 6.84388 13.7371 6.40625 13.7451 5.94421C13.7451 5.21972 14.3664 4.67041 15.3296 4.67041C15.7836 4.67041 16.1896 4.77355 16.4288 4.89319L16.2139 5.72935C16.0387 5.63351 15.7043 5.50596 15.3698 5.50596C15.075 5.50596 14.9078 5.62559 14.9078 5.82457C14.9078 6.00768 15.0591 6.10351 15.537 6.27074C16.2774 6.52527 16.588 6.9 16.596 7.47314C16.596 8.19763 16.0229 8.73106 14.9078 8.73106C14.3981 8.73106 13.944 8.61996 13.6498 8.4607L13.8647 7.59274Z" fill="#00C5E6"/>
</svg>
