<svg width="12" height="12" viewBox="0 0 12 12" fill="none" xmlns="http://www.w3.org/2000/svg">
<path d="M0.666748 11.3333V6.66665H5.33342L3.18875 8.81332C3.55506 9.18791 3.99233 9.48577 4.47502 9.68951C4.95771 9.89326 5.47615 9.9988 6.00008 9.99999C6.82625 9.99877 7.63178 9.74176 8.30599 9.26427C8.9802 8.78678 9.49003 8.11224 9.76542 7.33332H9.77742C9.85342 7.11665 9.91141 6.89332 9.95008 6.66665H11.2914C11.129 7.95546 10.5019 9.14071 9.52764 9.99993C8.55341 10.8592 7.29908 11.3333 6.00008 11.3333H5.99341C5.29329 11.3354 4.59971 11.1986 3.95281 10.9308C3.30592 10.6631 2.71856 10.2696 2.22475 9.77332L0.666748 11.3333ZM2.04941 5.33332H0.708081C0.870399 4.04496 1.49718 2.86009 2.47085 2.00092C3.44453 1.14176 4.69821 0.667343 5.99675 0.666653H6.00008C6.70032 0.664435 7.39404 0.801177 8.04106 1.06896C8.68808 1.33674 9.27554 1.73023 9.76941 2.22665L11.3334 0.666653V5.33332H6.66675L8.81475 3.18665C8.44806 2.81164 8.01026 2.51353 7.52696 2.30977C7.04366 2.10601 6.52458 2.00069 6.00008 1.99999C5.17391 2.00121 4.36839 2.25821 3.69417 2.7357C3.01996 3.21319 2.51014 3.88773 2.23475 4.66665H2.22275C2.14608 4.88332 2.08741 5.10665 2.04941 5.33332Z" fill="#199CD9"/>
</svg>
