<svg width="3" height="12" viewBox="0 0 3 12" fill="none" xmlns="http://www.w3.org/2000/svg">
<path d="M1.49996 0C0.766626 0 0.166626 0.6 0.166626 1.33333C0.166626 2.06667 0.766626 2.66667 1.49996 2.66667C2.23329 2.66667 2.83329 2.06667 2.83329 1.33333C2.83329 0.6 2.23329 0 1.49996 0ZM1.49996 9.33333C0.766626 9.33333 0.166626 9.93333 0.166626 10.6667C0.166626 11.4 0.766626 12 1.49996 12C2.23329 12 2.83329 11.4 2.83329 10.6667C2.83329 9.93333 2.23329 9.33333 1.49996 9.33333ZM1.49996 4.66667C0.766626 4.66667 0.166626 5.26667 0.166626 6C0.166626 6.73333 0.766626 7.33333 1.49996 7.33333C2.23329 7.33333 2.83329 6.73333 2.83329 6C2.83329 5.26667 2.23329 4.66667 1.49996 4.66667Z" fill="#000"/>
</svg>
