<svg width="18" height="18" viewBox="0 0 18 18" fill="none" xmlns="http://www.w3.org/2000/svg">
<path d="M12.6998 10.6555C12.4887 10.5555 11.4776 10.0555 11.2887 9.97774C11.0998 9.89996 10.9665 9.87774 10.8221 10.0888C10.6776 10.3 10.2887 10.7555 10.1665 10.8999C10.0443 11.0444 9.9332 11.0555 9.72209 10.8999C9.11574 10.6566 8.55574 10.3108 8.06656 9.87774C7.62374 9.46082 7.24885 8.9772 6.95547 8.44443C6.83325 8.24444 6.95547 8.13333 7.04436 8.02222C7.13324 7.91111 7.24435 7.78889 7.35546 7.66667C7.43671 7.56097 7.50394 7.44519 7.55546 7.32223C7.58302 7.26504 7.59734 7.20238 7.59734 7.1389C7.59734 7.07542 7.58302 7.01275 7.55546 6.95557C7.55546 6.85557 7.0888 5.84448 6.91103 5.43337C6.73325 5.02227 6.5777 5.07782 6.45548 5.07782H6.01104C5.79932 5.08608 5.59953 5.17798 5.45549 5.33337C5.22301 5.55523 5.03885 5.82271 4.91458 6.11907C4.7903 6.41542 4.72858 6.73425 4.73328 7.05557C4.79012 7.84442 5.08018 8.59857 5.5666 9.2222C6.45922 10.5482 7.68042 11.6201 9.11099 12.3333C9.59987 12.5444 9.97764 12.6666 10.2776 12.7666C10.6989 12.8939 11.1442 12.9205 11.5776 12.8444C11.8655 12.786 12.1383 12.669 12.3791 12.5008C12.6199 12.3326 12.8236 12.1168 12.9776 11.8666C13.1057 11.5576 13.1479 11.2198 13.0998 10.8888C13.0443 10.8111 12.9109 10.7555 12.6998 10.6555Z" fill="#428F5E"/>
<path d="M14.7776 3.08897C14.0092 2.3133 13.0932 1.69935 12.0837 1.28335C11.0742 0.867343 9.99168 0.657701 8.89988 0.666787C7.45356 0.674356 6.03455 1.06126 4.78455 1.78886C3.53456 2.51646 2.49734 3.55928 1.77649 4.81318C1.05564 6.06708 0.676387 7.48816 0.676613 8.93449C0.67684 10.3808 1.05654 11.8018 1.77778 13.0555L0.666687 17.3332L5.04439 16.2221C6.25463 16.8806 7.61096 17.2245 8.98877 17.2221H8.89988C10.542 17.2328 12.1501 16.7541 13.5191 15.8473C14.8881 14.9404 15.9559 13.6463 16.5865 12.13C17.2171 10.6138 17.3818 8.94409 17.0596 7.33387C16.7374 5.72365 15.943 4.24586 14.7776 3.08897ZM8.89988 15.7999C7.66718 15.8008 6.4574 15.4667 5.39994 14.8332L5.1555 14.6888L2.55554 15.3665L3.24442 12.8332L3.08887 12.5777C2.2015 11.1486 1.86957 9.44358 2.15605 7.78602C2.44253 6.12845 3.32749 4.6337 4.64303 3.58539C5.95856 2.53707 7.61314 2.00812 9.29283 2.09889C10.9725 2.18967 12.5605 2.89385 13.7554 4.07784C14.3959 4.71327 14.9037 5.46983 15.2489 6.30344C15.5942 7.13705 15.7701 8.03104 15.7664 8.93331C15.7635 10.7535 15.0391 12.4984 13.752 13.7855C12.4649 15.0725 10.7201 15.7969 8.89988 15.7999Z" fill="#428F5E"/>
</svg>
